<?xml version="1.0" encoding="UTF-8"?>
<svg id="Layer_2" data-name="Layer 2" xmlns="http://www.w3.org/2000/svg" viewBox="0 0 282.63 695.87">
  <g id="Layer_1-2" data-name="Layer 1">
    <path d="M186.01,5.45c6.87,2.42,9.84,5.17,15.8,8.5,1.04.58,2.59.59,3.07.93.69.49,1.09,1.73,1.22,1.81.17.1,2.28.58,3.57,1.31.74.42,4.45,2.32,4.65,2.5.05.04-.41.58-.3.78.45.85,2.96,1.32,3.86,2.11,1.58,1.39,3.38,3.96,5.39,5.7.44.38,1.62-.28,1.21,1.54l1.33-.45c.5,2.44,4.25,3.3,4.21,5.53l1.38-.47.04,1.35h1.14c.36,2.03.97,1.08,1.47,1.53.25.22.15.94.4,1.22,3.59,4.09,9.09,8.75,10.35,14.84l1.14-.03c1.43,2.19,2.42,3.44,3.68,5.9,1.06,2.07,5.85,11.14,6.17,12.95.23,1.3-.42,1.96-.39,2.62,0,.27.84.21.93.57.72,3,1.11,6.92,2,9.93.68,2.34,2.12,2.32,2.18,2.51.32.92.23,3.65.47,4.91.07.36.77.32.86.65.38,1.37-.09,5.28.22,7.08.13.75.98,1.36.74,2.31l-1.39.23c1.82,1.35.47,3.4.62,5.08.08.86.98,1.72.77,2.76l.92-.23c.4,1.46-1.39.76-1.39,2.08,0,.35.73.07.91.56.82,2.23-.11,6.65-.18,9.13-.17,6.78-.08,10.6-1.37,17.26-.39,2.02.38,4.51-1.66,5.82l.92.91c-.55.56-1.14,1.17-1.31,1.97-.55,2.61-.51,6.78-1.22,9.37-.14.51-1.84,2.56-2.15,3.42-.33.91.17,1.8,0,2.25-.41,1.11-.61-.44-.99,2.23-1.87,13.14-12.35,30.84-16.83,44.13l-4.18,16.13c2.19,2.62,3.89,5.18,5.34,8.3,3.79,8.17,5.29,26,5.21,35.45-.11,12.83-11.71,26.43-20.09,35.35-5.44,5.79-7.44,6.64-14.72,10.24-2.41,1.19-7.78,4.34-9.83,4.92-.53.15-4.04.04-4.33.27-.56.43-.51,1.65-.96,2.27-.74,1.02-1.72.93-2.14,2.91-2.81,13.2-1.48,30.98-.67,44.68,1.02,17.2,3.56,35.16,5.78,52.1.82,6.25,3.04,11.68,4.69,17.85,1.04,3.88.51,4.25,2.45,8.15,1.6,3.21.6,6.71,1.09,8.58.16.63,1.16,1.17,1.45,1.86,3.01,7.18,3.54,16.54,5.51,23.99.4,1.51,2.79,4.14,3.45,6.71.7,2.74-.14,6.66,1.88,8.03l-.36.83c3.03-.02,6.94,1.94,9.01,4.14,3.88,4.12,8.13,14.02,8.07,19.61-.02,2.38-1.08,5.17-.95,6.96.07.93.9.61.97.98.23,1.26-.86,4.21-.46,6.37.09.48,4.16,7.43,4.55,7.79.55.51,1.33.23,1.84.57,1.86,1.26,9.41,7.21,10.89,7.15.32-.01.03-1.54,1.16-.95-1.08,2.04,4.1,5.17,6,4.15l-.44,1.33c2.96,1.24,4.91,4.23,7.03,6.39.41.42,1.29.35,1.61.69.53.56.54,2.51,1.32,3.5.58.74,1.31.53,1.76,1.03,2.63,2.98,8.3,18.75,8.42,22.88.07,2.39-1.51,7.75-1.26,9.6.04.31.78.22.86.51.52,1.96-1.52,3.67-2.08,4.75-.7,1.35-1.07,3.33-1.98,4.5-.42.54-1.38.72-1.65,1.16s.23,1.02.1,1.27c-.2.4-2.23,2.27-2.15,2.41l1.84,1.39.92-1.84c-.12,2.56,1.54,3.3,3.25,4.77.21.18.63-.18.92.14,1.27,1.39,2.97,4.42,2.29,6.39l.93-.23-.91,2.31,1.38-.46-.35.83.85.37-.51,1.57h1.39c-1.59,2.51-.61,5.86-1.35,8.58l.91.43c-1.29,2.93-.75,6.74-.49,9.92-2.06-.93-1.79,2.43-2.33,3.8-.13.33-.9.35-.92.64-.05.62.5,1.25.49,1.74,0,.26-.71.25-.89.63-.43.89-1.1,3.14-1.68,3.77-1.21,1.3-4.57,1.84-3.9,4.18l-1.15-.92-.48.95c-2.85-1.81-4.45,2.2-6.2,3.43-2.07,1.45-3.71,1.63-6.06,3.66-.29.25-1.01.15-1.23.39-.51.57.74,1.9-1.58.75-.55-.27-.27-1.42-2.32-.29-1.09.61-1.05,1.38-1.39,1.6-.87.56-4,.17-3.11,2.43l-1.17-.4c-.78,1.31-3.74,1.38-5.38,1.92-2.63.88-2.26,1.06-4.77,1.3-1.54.15-3.45,2.11-5.76.88l.44.88-4.61,1.17.02,1.63h-1.39s.47-.92.47-.92c-1.25.42-2.23-.57-2.54.93l-.25-.57-1.36-.35.46,1.38c-.21.22-2.79.28-3.37.48-.75.25.37,1.74-1.71-.02v1.84c-.78.21-.22-.89-.74-.96-.68-.09-6.92,1.34-7.32,1.92-.54.79.32,1.72-1.63,1.34l.92-1.14-1.16-.25-.92,1.38c-2.23-1.92-3.36.08-5.09,1.4-.42-.94-.41-1.09-1.61-.92l.47.92c-2.11,1-3.95-.93-4.81,1.27-1.08-.32-1.99-.04-2.35-1.26-1.32,2.2-2.32.79-3.68.92-.46.05-2.28.48-3.17.63-1.1.19-3.08,1.22-4.24,1.26-1.49.06-2.07-1.03-3.45-.96l.92,1.38-2.51.42-.73-1.8h-.91c-.41,2.94-4.81.77-5.04.95-.13.1-.14.84-.48,1.1-.81.62-4.75-1.03-4.65,1.17l-.9-.02-.09-.77c-.14-.14-1.19.7-1.77-.36s1.4-.13,1.37-.92l-.91-1.15,1.38.46-.28-1.42-1.29-.46c-1.3,3.07-3.07,1.52-5.16,1.46-.22,0-.13.79-.51.88-.8.18-3.04-.45-4.02-.41-7.48.31-15.38.64-22.65,1.34-1.8.17-5.24-.65-6.5-.32-.53.14-.63.78-.68,1.23-1.18-.84.1-1.45-2.07-1.83l.7,2.29c-2.16.19-1.79-2.71-4.61-1.84l.46,1.84-5.54-.46.47-1.38c-1.12-1.04-3.81-.33-4.31-.47-.47-.13-.41-.95-.97-1.23s-2.88.35-3.68.28c-2.64-.25-5.85-1.2-8.82-1.35s-5.35-.85-8.82-1.33c-7.1-.98-13.95-2.3-21.15-3.55-.67-.12-1.39-.95-2.28-.68l-.51.97c-.86.04-2.35-1.61-3.89-1.66-.78-.03-1.14.87-1.4.72-.03-.02.08-.5-.17-.73-1.45-1.33-2.08-.61-3.3-1.09-2.93-1.15-6.34-3.29-9.24-4.16-1.56-.47.14,2.31-.22,2.76-1.99-.23-2.58-1.87-4.61-1.38v-1.85c-3.48,2.57-4.18-2.07-7.38-2.31l1.39-.46c-.35-2.62-2.98-2.78-5.08-3.23l.93,2.07c-.89.94-2.17.33-3.24.24l.45-.9-1.56-.51c-.67,1.96-1.92.68-1.2-.89l-1.13.44-.31-1.31-3.86-1-.46.95-1.4-.93.67-.66-.5-1.59-1.78-.06c.57-.94.06-1.14-.83-1.46l.38-.84c-1.72-.43-2.58-.08-4.16.45l.46-1.1c-1.29-.86-.82-1.84-2.55-2.36-.32-.1-2.89.5-.22-.92-.55-1.15-1.72-.7-1.87-.94-.68-1.16.03-2.36-.04-2.47-.08-.13-1.01-.27-1.37-.72-.4-.48,0-1.33-.26-1.98-.31-.78-3.76-6.04-3.81-6.43-.05-.36.41-.95.23-1.56-.78-2.58-2.53-3.8-.26-6.23l-.96-.88c.43-1.04,0-3.2,1.42-3.04l-.92-.46.95-.71-.49-1.59h1.39c-.35-1.83-1.68-.69-2.31-2.55.88-.34,1.64-1.86,1.86-2.76.39-1.59-1.83.83-1.39-1.15,3.8.41,2.23-4.43,3.19-5.71.32-.43,1.18-.3,1.64-.76,1.14-1.13,2.47-2.5,3.61-3.67.98-1,.7-2.8,3.56-2.34.32-2.44-2-3.7-2.66-4.93-2.45-4.55-4.58-14.98-4.01-20.06.14-1.22.97-2.97,1.16-4.29l-.94-.71,1.85-1.24c-.33-1.2-.78-2.73.45-3.58.45-.31,1.07.81,1.37-1.88l-2.3,1.15c-.05-1.58,1.76-2.23,2.08-2.77.39-.66.09-1.49.37-2.18.65-1.61,5.62-2.8,5.42-5.2l.91.47v-1.85s1.38.46,1.38.46v-1.39s-.91-.22-.91-.22c1.04-3.25,3.77-4.39,5.73-6.28.73-.71,1.97-3.02,2.6-3.43.43-.28,1.15.11,1.69-.11,1.18-.48,1.27-1.67,1.83-2,.71-.42,1.89-.24,2.46-.67.43-.32.31-1.14.79-1.63,1-1.02,2.57-1.25,3.54-1.88.65-.42.82-1.34,1.22-1.59.66-.42,1.55.28,1.86.05.37-.26.53-1.52,1.09-2.14,2.25-2.49,6.31-5.01,8.58-7.71.53-.63,2.21-2.87,2.41-3.47s-.06-1.17.04-1.82c.87-5.7-.69-12.13.1-17.96.16-1.18,1.5-3.83,2.23-4.84,1.73-2.42,10.33-9.3,13.08-11.25.51-.36,1.4-.31,1.96-.71,1.52-1.1.69-3.88.98-5.48.36-1.99.69-4.1,1.03-5.96.16-.88,1.29-2.1,1.2-3.35-.06-.98-1.31-1.22-1.4-2.73-.04-.74.8-5.64,1.09-6.35.41-1.03,1.51-1.48,2.08-2.54.83-1.52,2.41-6.08,3.09-7.99,10.85-30.47,14.81-65.81,15.85-98.08.41-12.88-.29-26.1-.86-39.18-.04-1.01-1.33-5.14-1.88-6.01-.25-.39-4.26-3.45-4.69-3.63-15.8-6.73-23.97-6.47-36.33-21.02-.84-.99-5.21-6.57-5.76-7.52-.05-.1-.28-2.04-.36-2.17-3.79-5.97-5.89-18.63-5.89-26.21,0-9.63,4.02-21.3,9.78-28.99.7-.93,1.64-1.21,2.18-1.97,1.05-1.47,1.38-5.47,4.2-3.87.82-1.83.95-4.79,0-6.58-1.52-2.85-1.22-3.21-2.21-6.21-.76-2.3-2.46-4.22-3.4-6.29-4.57-10.05-9.32-21.52-7.74-32.83.63-4.51,3.16-9.92,4.08-14.39,1-4.85-2.46-10.35-3.6-15.23-9.56-40.84.94-79.93,29.24-110.55C97.08,5.46,146.26-8.57,186.01,5.45ZM93.42,48.17c.1-.15,2.25-.86,1.85-2.77l1.38.46.47-3.23.91.92.7-1.38.23,1.38,2.54-.92-1.16,2.77c1.18-.38,2.3-.8,2.3.92l-2.05.49-.71-.95c.08,2.22-3.32.89-2.54,2.78l1.6-.24c-1.94.79-1.73,2.4-2.75,3.73-.63.82-1.64.38-1.66,2.56l-2.96.4,2.77-3.69-3.73,2.07.16,2.48.79.08v.92c-1.73-.31-4.7,1.94-3.68,3.69-1.51-.08-2.52.72-3.69-.46l-.46,2.11-1.86-.27.92-2.3-2.3-.47-.69,1.84-.47-2.76c-2.24,2.06-.51,3.39-4.19,3.65l-1.11-.88.27,1.39h3.42s-.46,1.84-.46,1.84l1.38-.46c-.29,2.13,1.93,2.13,1.39,4.16l2.3-1.39c-.05-1.05-2.12-.29-1.84-1.6.14-.68,2.92-1.89,3.23-1.62,1.02.88-1.19.78-.92,1.38l1.37.23c-.83.58.16,2.39.02,2.54-.11.12-1.82-.07-1.85.93,2.44.65,2.83,3.42,4.39,5.08,1.27-1.38,0-1.89-.23-3.23,1.18.78,1.87,1,3.22.46.64,1.02-2.81,2.03-1.84,2.77.15.11,1.44.06,1.75-.12.25-.14-.2-.99.55-.8.35,1.99-.1,2.08-1.38,3.23,1.34-.23,2.17-.61,2.77.92-2.31-.17-1.95,2.96-4.61,2.31l2.3-1.85-.23-.92h-1.62s.47.92.47.92c-2.17-.35-.68.67-1.59,1.41-.61.49-2.8,1.25-3.45,1.62-1.32.75-1.65,1.95-1.4,3.42l4.59.48-.91-1.61,1.84-.69c-.93,2.69,1.3,2.03.93-.47l2.33.25.43-2.09,1.84.46c-.41-1.3,1.36-2.44,1.37-2.59.03-.64-.62-3.43-.26-3.9l1.66-.45c-1.09-.88-.31-1.92-.68-2.74-.48-1.08-3.43-2.03-1.4-3.72.49.97.75,2.24,1.6,3.02.64.58,1.64.59,1.9.96.71,1.02-.23,2.84,1.35,3.16l-.47,1.16c-.58.27-.51-1.95-1.38-.92-.23.28.58,2.13.47,2.96-.09.68-2.05,5.18-3.22,4.92l.44,1.35-1.28.08-.58,2.23-.46-1.38-1.64,1.38.73,1.38c-2.15.1-2.62,2.32-4.15,3.47,2.74,1.5-.32.68-1.13,1.18-.74.46-.37,1.16-.55,1.36-1.41,1.52-4.5,4.37-5.56,5.08-.45.3-1,.39-1.53.46l1.85,2.54c.63.65-2.69,1.71-1.84,2.53.69-.19,1.43-.81,2.16-.82.64-.01,3.43.64,4.14.72.68.08,1.4-1.18,2.41-.41l1.43-3.18-1.84.46v-.91c.75-.61,3.09-1.94,3.55-2.45,1.09-1.21.46-2.5,3.37-2.17-.46.85-.19,1.5.92,1.38l.07-1.77,1.97-.57.28.96c.68.04.58-.99,1.39-1.63,1.27-1,2.62.31,2.76-3.44l.91,1.38c.32-4.71,5.82-6.33,5.09-11.08h1.83s1.4,4.62,1.4,4.62l1.38-.92v2.3s-1.38,0-1.38,0c-.6,1.24.93,1.46.94,1.64.06,1.67-1.11,4.82-.27,6.92.75,1.88,3.88,3.57,2.56,6.21,1.33.41.66-.78,1.15-.93.84-.25.77.19.32.71l.83.23c.08-2.06.83-4.64.78-6.64-.06-2.31-1.14-6.14-1.41-8.56-.19-1.65.6-3.01.52-3.9-.22-2.31-3.55-10.38-4.65-12.43-.44-.83-.67-2.15-.78-3.1l-1.37,1.38c.5-1.15-1.66-1.85-.93-2.76.82-1.02.82,1.64,1.84.92l-.95-3,1.64-2.08c1.49.45,1.08,1.47,1.68,2.47.96,1.58,3.25,3.97,2.24,5.84l1.35.02c.23,2.66,1.01,5.05.97,7.82l1.38-.92c.31.36.31,3.97.47,4.76.08.38,1.03.29,1.27,1.56.71,3.77.14,8.9.77,12.39.11.61.81.93,1.18,1.38l-.92.23c2.01,1.87-.01,4.04.24,6.07.13,1.01,1.28,2.16,1.13,3.42l-2.18,2.74,1.72,1.61c.51-1.25.93-1.83.47-3.23h1.39c-.71,1.6.85,3.54.93,5.3-1.46,1.02-1.32-.69-2.31-1.15l-.47,3.23c3.58.89,2.52-.41,3.67-1.58.08-.08,1.5-.24,1.87-.73l-.46,5.07c1.86-.19,4.28-.76,4.16,1.85,2.83.13,2.74-2.83,3.92-4.61l1.6,1.38c-.32-1.76,3.59-.93,3.24-2.53-.08-.38-2.31-1.35-2.57-3.46-.07-.61,2.62-3.04-.2-3.71l.88-1.09c-1.22-1.66-1.25-4.5-1.97-6.18-.22-.51-2.72-1.64-1.26-3.53.51-.66,1.98.43,1.42-2.12l-1.83,1.38-.93-1.62.94-.45-.04-.9-2.26-2.37.9-1.59c-1.4,1.25-1.54-1.98-1.42-3.02.07-.68,2.73-3.09,1-5.1l.91-.43c-.46-1.24-2.07-3.92-.04-3.93v-.9c-1.61.42-.55-2.71.47-3.24l.23,5.54c.98-1.59.54-3.92,1.89-5.49.37-.42,1.65-1.3,2.03-.97.71.62-2.61,2.2-.7,2.3,1.75-1.03,2.74-6.24,4.86-6.26.26,0,1.09.22.91.71-2.35,1.1-2.81,1.66-3.45,4.18-1,3.92-2.17,8.57-2.1,12.7.09,5.96,1.61,13.25,3.98,18.63.38.87,1.28,1.76,1.72,2.66l3.07,1.78-.98-2.49-1.78-.06c1.18-1.32.65-4.24.19-5.97-.1-.38-.86-.68-.94-1.16-.27-1.76-.96-9.64-.63-11.02.08-.34.8-.27.9-.64.54-2.13.46-5.3,2.32-6.84.33-.27.81-.5.94.03l.46,1.6,1.83-.92c.76,4.51,4.56,7.45,6.24,11.53.69,1.68,1.34,4.6,1.61,6.47,1.87.37-.06-2.19.46-3.23l1.38,3.69h1.38s.23-2.3.23-2.3c2.71,3.03,5.25,6.67,9.46,7.38.22.68-1.79.33-.92,1.37.13.16,3.02,1.91,3.55,2.22,6.57,3.86,9.06,3.64,16.29,4.49,2.23.26,4.42,1.14,6.71,1.19l.68-.97c1.38,1.52,1.97-.16,3.65-.25.99-.05,6.88,1.81,7.85,2.35s1.47,2.01,2.8,2.05c-.84,1.24-.2,2.71-1.38,2.99,1.19,1.29,2.2,2.68,2.77,4.39-1.34.21-.96-1.13-2.12-1.79-.62-.36-1.32-.51-2.03-.52l.47-.91-2.55-.93c-.41.89-.27.97-1.35.97-4.8,0-7.26-2.61-12.34-.44-.33.14-.87.41-1.19.56-.15.07-.16.71-.35.77-1.27.36-.99-.69-1.5-.89-2.32-.89-4.19.67-5.32.36-.35-.1-2.57-1.53-3.01-1.72-.7-.31-1.95-1.11-2.61-.99-2.41.44,1.59,1.43,1.6,1.62l-1.37,1.61c1.91-.38,2.43,1.7,4.62,1.39-1.33,2.13,3.24,3.57,5.07,3.23l-.92.91c2.37.93,4.99,2.69,7.07,4.24s6.89,5.6,8.46,7.46c1.67,1.98,3.42,5.6,4.89,7.13.53.56,2.17,2,2.87,1.98.48-.02-.08-1.16.7-.95l.69.92c1.19-2.24,4.16-2.6,6.44-3.25,1.09,1.95.88,3.11-.66,4.63h3.69c-.52-2.46,2.99-1.26,4.62-1.84-.18,2.43-3.02,3.76-5.18,4.33-1.35.36-1.59-.77-2.44,1.2l-.46-.93-.46.93c-.66-1.46-7.32-.34-7.58.04-.77,4.17,5.6.71,6.42,4.57l-1.84-.92.92,1.84c-2.21.72-.75-1.73-2.07-1.38-.45.12-.23,1.07-.98,1.33-1.71.57-4.46-.88-5.77,1.21-.5.79.03,1.28-.07,1.54-.04.1-1.39.8-1.49,1.47-.73-10.44-4.27-2.16-7.66-.27-6.56,3.67-16.25,3-23.27,2.1-3.16-.41-6.29-.91-9.45-1.36-.09.92,1.12.18,1.75.55.27.16.34,1.15.99,1.49.32.17,1.07-.17,1.71.14,1.63.79,2.87,2.22,4.57,2.88l.46-.93,3.44.49v1.38s-2.31-.46-2.31-.46l.45,1.62c1.07.73,2.9-.11,3.95-.01s1.92.68,3.21.73c2.76.12,3.03-.95,5.18.44.92.6,5.63-.26,6.85-.92.36.96.48,1.04,1.58.9-.93-1.62.09-2.24.74-.43,1.87.34,2.43-1.47,3.65-2.33,3.52-2.48,5.67.16,3.44,1.15-.58.26-1.25-.2-1.84-.03-1.68.48-2.73,3.61-4.57,3.99l.44,1.34c-3.59.61-7.54,4.1-11.26,3.68-4.77-.54-8.35-2.19-13.02-3.17-3.7-.78-5.37-1.03-8.74-3.26-1.02-.68-2.14-2.56-3.47-3.02-1.21-.41-2.14.26-2.24.2-.1-.07-.54-1.55-.94-1.95-.91-.9-3.5-2.48-4.49-3.7-1.59-1.95-.49-3.31-4.76-3.1,1-1.68,1.17-4.82-1.39-4.62v-.91s.92-.21.92-.21l-1.84-3.02.23,2.31c-1.23-1.04-2.48-1.29-2.08-3.23l2.3.46-.46-2.31-.91.47-.47-3.23-.46,1.38c-1.27-.2-.46-1.44-.6-1.75-1.31-2.77-1-2.18-1.72-5.31-.04-.16-1.82-2.41-2.29-2.19l1.39-.69c-.69-1.41-.6-3.14-.96-4.5-.1-.38-.85-.31-.87-.63-.15-2.56.14-2.13.73-4.19.4-1.38-.31-3-1.45-3.83-.77,4.28-1.07.74-1.69.11-.15-.15-3.13-.65-3.61-.11l.45-2.31c-1.23.74-.78,0-.92-.12-.99-.76-2.37,1.42-2.14,2.44s1.35,1.19,1.22,2.3c-3.68-.19-2.09,1.86-2.29,3.41-.02.16-.87,2.56-.95,2.7-.29.53-1.14.54-1.33,1.13-.22.65.27,1.46.16,2.07-.34,1.92-1.51,3.42-1.13,5.47-1.04.71-.98-1.92-1.84-.92-.22.26.49,1.74.38,2.44s-.84,1.18-1.04,1.75c-.43,1.24-1.46,3.77-1.63,4.83s2.51.35,3.22.67c.28,1.77-.86.33-1.3.57-.14.08-.57,1.27-1.47,1.05v.68s.96.29.96.29c-1.41,3.11,1.32,2.17.8,4.71l-1.75,1.24,1.83.47-.92,6.22,1.39.46c-1.15-.12-1.25,1.4-1.38,2.31l1.38-.46.47,2.31c-1.95.27-4.95,1.43-3.7,3.7-2.2-1.13-.96.25-1.47.81-.37.41-1.59-.15-1.79,1.28-.16,1.13.33,1.87,1.19,2.53l1.15-.92c.6,1.58-1.34,2.8-1.33,2.97.03.48.98,2.48.88,2.56l-1.39.46c2.61.28,2.21.81,3,2.77l.46-.93,1.15.94-.91,1.14,2.07,2.55,3.69-2.77-.69,2.31c1.45-.43,1.61-.77,1.38-2.31l2.76,1.84c-.78-1.97.35-2.19.89-3.13.56-.99-.05-2.23,1.44-1.71l.51-1.56,1.75-.11.03-1.34,1.84.46-2.07-3.69c-.39,1.23-.91.97-2.07.92l.92-1.38-1.39-.24.91-.89c-.44-1.84-1.97-1.41-2.28-1.67-.11-.1.72-1.9-.47-2.74h4.61s-1.84.92-1.84.92c-.19,2.43,3.52.74,4.4.02,1.14-.94.5-2.21,2.99-1.6l.46-1.65c-.96.48-1.41.45-2.08-.46l-.23,1.39c-1.43-1.03-.33.78-1.84.45.57-2.44,2.52-1.87,1.39-4.61h1.39s.22,1.83.22,1.83c1.58-.66,3.46-1.87,5.12-.96.14-1.98,3.73,1.23,2.5,2.35,3.26-1.49,3.67,2.4,4.17,2.77.19.14,1.27-.47,1.96-.38.92.13,4.2,3.28,4.03,4.54l1.38-1.85c-.37,2.34,1.59,2.88,3.01,4.16.34.12-.04-1.62,1.16-.7l.4,3.18,3.05,2.13,2.07-3.22c-1.11,2.1.53,1.64.51,2.51l-.51,1.64,2.45-.04.79,1.89c1.49.37.33-1.28,1.84-.92l.05,1.31c2.89,1.13,5.2,2.32,8.51,3.31.8-2.22,1.87-.17,1.14,1.38h1.38s.22-1.36.22-1.36l2.09.44-.42,1.78,2.04,1.44c.9.43.53-1.88.51-1.98-.16-.71-.99-1.26-.74-2.17l2.08,1.84,1.15-.92-.27,1.87c1.37.49,1.65.26,1.88,1.82l1.61-.93-1.39-1.15,1.85-.23-.46-1.84,2.31.45c-.6-.74.26-1.87.92-1.38.11.08-1.23,1.33,1.38,1.38l-.46-1.84h1.38c-.65,2.2,1.35,2.19.93,4.15l1.37-1.84.47,5.53c1.13-.18.12-2.77,1.84-2.3-1.31,1.77.82,3.3.89,4.87,0,.2-.8.15-.88.5-.19.82.02,2,.04,2.88l2.48.03.25,1.4c1.29.31.96-.75,1.1-1.63.41-2.61-.24-2.52-.61-3.75-.28-.91.94-4.37.43-5.7,1.7-.38.64,1.9.91,2.93l.93.3-.92,1.38h1.39s-.93.76-.93.76l.08,3.79,1.94.57.75-1.2-.91-.22.46-1.85-1.38.92c1.11-2.72.48-5.22,1.39-8.07-3.88-.8.32-2.03.68-2.55.39-.56.1-1.85.93-2.3,1.82-.99-.06,3.69-.12,4.04-.16,1.02-.16,2.04-.15,3.06,1.57.6,2.12.62,1.88,2.59.84-.8,2.12-2.13,2.65-3.12,1.05-1.93.55-4.98,2.42-5.19-.14,1.42-1.35,2.96.46,3.46l-.69,1.62c1.71-1.24,2.07-3.93,2.08-6,2.23,1.26-1.19,3.55.92,5.53l-1.84.7,2.3.7-.95,2.03,1.63,1.2c.27-.05-.19-4.91,1.62-5.08l-.45,3.23c2.63-.73,2.23-1.58,2.97-3.56.03-.09.64-.19.81-.79.49-1.74-1.01-2.5,1.75-3.5.44,2.08.31,2.62-1.38,3.93l.92.44-.92,3.02c.49-.51,1.91-.78,2.17-1.06s.16-.94.39-1.21c.58-.68,2.84-1.54,3.43-3.04l-.91-.69-2.31,2.77c-.54-2.08,2.22-3.07,3.23-4.61l-1.39-.24c1.01-1.78-.69-3.29-.48-4.57.06-.39,1.48-.04.95-1.2l-1.62,1.39-.29-.88-.85-.5c1.13-.58,3.14.08,3.31-1.29l2.66,1.51c-.43.29-1.64,1.94-.45,2.08.78-1.43.9-2.08.67-3.69l1.64-.45c-.79,1.55-.36,4.26-1.84,4.84l1.84,2.08c.18-1.49.66-2.46-.46-3.69l1.79-.06.54-1.99-.91-.91,3.66-7.2c-2.63.53-2.74,4.05-4.02,5.88-.3.44-.37,1.25-1.06.35,1.74-3.33,2.89-6.87,4.36-10.28.08-.18,1.12.13.25-1.22l.93-.55-.48-1.11c2.99-.08,1.75-.82,2.21-1.69,1.41-2.66,2.22-5.46,3.18-8.31.34-1-.6-2.6,1.06-3.22l-.39-.88.86-.22-1.37-1.38,1.14-.47-.62-.69c1.8-1.54,1.84-4.02,1.78-6.23l1.81-.04c.4-1.46.99-3.24-1.34-2.26l.92.91c-1.88.08-1.65,2.74-3.69,2.31.7-.75.24-2.83.53-3.16.14-.16,2.2-.48,2.47-1.91l1.14.92c.74-1.04-.3-1.96-.27-2.51.03-.58,1.23-2.35,1.41-3.27,1.91-9.57-.9-31.01-2.72-40.78-.17-.94.29-2.58-.26-3.75l-1.38.92c.28-3.66-2.67-6.04-2.06-9.71l-1.17.02c-.13-2.81-1.07-5.75-1.85-8.43-.09-.3-2.29-1.69-2.28-3.83l.89-.65c-1.49.54-2.44-2.51-2.92-3.81-.23-.62.04-1.35-.11-1.78-1.09-2.95-3.23-3.39-4.33-6.18l-.94.22v-2.31s-1.38.46-1.38.46c.31-1.86-1.64-2.99-2.6-4.35-.43-.61-1.14-2.35-1.54-2.8-1.07-1.18-3.65-3.05-5.08-3.98l.45-1.33-2.77-1.62.92-.68c-1.73-.21-3.43.06-3.22-2.31,1.76-.74,1.51,2.29,2.76.69-.32-1.31-1.97-1.52-2.18-1.74-.28-.28.06-1.8-1.68-1.74-.23,0-1.33,1.91-1.44,1.86l-7.78-7.22c-1.99-.75-3.86-2.52-5.84-2.48l.46-1.38c-1.77.88-1.15-.21-1.73-.43-4.04-1.53-9.65-4.41-13.46-6.79-.37-.23-.45-.95-.56-1.01-.19-.1-.91.42-1.43.28-1.95-.53-3.85-2.03-6.07-2.26l-.51-.88h2.09s.22-.93.22-.93l.66,1.65,1.61.17.96-1.81,3.58,2.87c1.38.27,8.11,4.03,8.65,3.59.26-1.24-.33-.79-.91-1.14-3.14-1.9-8.94-5.01-12.25-6.23-1.24-.46.33,1.69-.91.91-1.8-1.13-2.95-2.81-5.77-2.76l.46,1.38-2.77-.23,4.15,1.62c-.08.54-.51.86-1.06.84-2.12-.07-5.07-2.88-7.25-2.23,0-2.22,3.27-1.07,4.61-.92.97-.93-3.67-2.13-4.41-2.27-2.19-.43-6.05.48-6.89-.97l-1.15.24c1.07,1.36,2.43,1.79,4.15,1.63v1.84s-1.38,0-1.38,0l.46-1.38c-1.95.72-3.63-1.7-5.31.45-.61-1.76-3.21-1.64-5.08-1.83-8.87-.89-26.16.26-35.02,2.8-1.23.35-4.02,2.08-4.75,2.19s-1.21-1.03-1.52-.85c-.05.03.18.63-.57,1.06-1.75,1-3.49,2-5.29,3-2.7,1.51-5.7,2.83-8.45,4.25l.92,1.37c-2.27.1-2.85,2.81-5.08,2.81l.24,1.36c-1.8.09-1.6,2.32-3.9,1.39l-1.42,3.45c.64.88.97-.3,1.25-.55.92-.8,1.56-1.81,2.43-2.68l2.32.69c-.14-2.79,1.69-3.31,3.7-4.15-2.06,1.99,1.06,1.19.46,2.99-.49,1.45-1.58-.39-1.83-.22-.06.04.06.64-.1.74-.33.2-1.53-.39-1.29,1.1l1.77.07.53,1.78-.92-.92-.93,1.38-1.61-.91-.23,1.37-1.84-.46v1.39s-2.31-.93-2.31-.93l.3,1.39,1.54.45c-1.31.08-2.82.32-4.04.79-.4.16-2.46,2.21-2.63,2.26-1.3.39-3.04-.17-3.94-1.21l-.91,1.62-1.41-.23c-.3,1.92,1.82.39,2.77.46l-1.84,1.84,2.54-.92.42.89,1.65-.43-.92,2.76,2.77-.92-.46,1.38c3.4.37,1.72-1.55,1.97-2.22.07-.17,2.32-2.65,2.64-2.4.52,1.5.79,3.58-1.38,3.23l1.41,1.63c-.65,2.62-2.13,2.91-4.18,4.14l.84.28-.39,1.06c0,.28,1.81.37.93,1.2-.42.39-1.27-.73-1.61-.76-.53-.05-2.83,1.4-3,1.92v.68s1.38.46,1.38.46c-1,.13-2.78.92-3.23,1.85,2.49.29,4.21,0,4.63-2.76l1.83.46c.11-.47-.15-1.61,0-1.85ZM77.69,39.83l1.88-3.66-2.77.46c.86,1.33-.42,1.93-.46,3.23l1.34-.03ZM87.41,40.33l-.92.23.44,1.41c-2.38,1.18,2.18,3.19,2.25-.06-1.21-.22-1.66-1.51-1.77-1.58ZM83.26,48.64l-1,1.3-1.28.11c.89,1.91-2.35,1.82-.26,3.66l1.61-.92c-1.09-2.06.97-1.94.93-4.15ZM77.73,70.8l-1.84-.93c.19,2.01-.71,1.9-2.31,2.78l1.38.92c.5.42-1.91.54-.92,1.38.4.34,2.55-1.77,3.23-.22-.56,1.94-2.54,3.04-2.3,5.3h1.84c-.11-1.8.32-2.63,1.83-3.47l.03-.92-.95-.46.94-1.61-1.76-1.16.84-1.61ZM50.95,80.95c.46-.46,2.2-5.55.7-5.53-.78,1.38-1.45,3.18-1.53,4.94-.04.9.37,1.05.83.59ZM50.96,82.8l-1.84-.47c-.73,1.93-.82,3.02-.46,5.08.84-.14,2.33-3.72.46-2.3v-.92s1.84-1.39,1.84-1.39ZM81.42,105.88c-.17-.16-3.94,1.67-4.31,1.91-1.13.75-1.51,2-1.78,2.19-.1.07-2.03-.75-1.75.74.23,1.19,1.07.2,1.43.07,2.42-.88,2.29-1.23,3.93-2.52.83-.66,2.62-.82,2.48-2.38ZM171.42,115.12c-1.51.15-2.53.06-3.69-.93-.58,2.39,1.41,1.09,2.29,1.61.59.35.78.83,1.83,1.48.91.56,1.67,1.28,2.79,1.52,1-1.28-2.97-2.65-3.69-2.77l.47-.92ZM127.57,120.19l-.46,1.84-.93-1.37-1.55.04c-1.46.6-.28,1.99-.42,2.89-.16,1.08-1.4,3.7-1.5,4.68-.12,1.17,1.2,3.33.71,4.84,2.34-1.22-.39-3.03,2.76-4.39-2.87-1.64-1.15-1.82-.67-3.46.18-.61-.15-1.51.17-1.99,1.05-1.62,1.86.51,3.28.6v-3.69s-1.15.92-1.15.92l-.23-.92ZM176.03,129.43c-1.99.32-4.18-.67-6.1-.37-1.2.18-7.14,1.98-8.2,2.45-.26.12-3.52,3.54-3.67,3.8-2.39,4-4.01,12.13-2.44,16.61s6.09,5.17,9.61,7.48l1.1-1.81h-2.31s0-2.31,0-2.31l-1.38.92c-.4-1.78-2.64-1.41-2.32-3.92,1.15-.89.97,1.12,2.43,1.73,1.81.75,3.98-.3,4.96,2.19-.58-.03-1.2.17-1.75-.12-.06-.03-.26-1.71-1.02-.79-1.33,1.61,3.5,1.3,3.83,1.37.38.09.56.94,1.06,1.33,1.18.9,2.8.51,1.57,2.83,1.71-.28,3.25.29,4.85.45,1.27.13,3.47.42,4.61.46,1.75.07,6.93-.99,7.93-.79.79.15,1.34.9,2.18.83.24-.02.28-.71.65-.9,2.69-1.37,4.45-1.44,5.73-4.79.76-2-.09-4.2.36-6.34l-1.38.47-.7-1.84c-.74,2.35-1.44,1.58-2.68,2.38-.94.61-.93,1.88-2.17,1.76-.56-.68,1.22-3.65,0-4.15-1.4,6.32-9.38,8.06-13.39,2.89-.58-.75-.18-2.18-1.85-2.67l.92-.22c.08-3.81,1.12-7.33,5.54-7.4l-1.38-.91,2.56-.48,6.67,1.63-.92-3.01-.46.92-2.76-.03-.02-2.74-1.38,1.84-.93-1.62,1.39-.24c-.59-2.08-4.24.14-5.08-.46,2.99-3.3-5.44-4.79-7.38-3.23-.03-2.07,2.81-1.95,3.69-3.23ZM97.01,133.9c-.17.1-.26.33-.57.17l-1.64-.72,1.8-1.91-1.12-1.55c-1.15,2.59-1.48.59-2.74.5-3.21-.23-2.74,2.04-3.05,2.26-.27.19-2.41-.68-3.21.01l1.84.68c-1.08,1.26-1.55,1.91-3.22,1.16l.92,1.61c-2,1.34-2.87,2.64-5.53,2.09l-.23,1.38-.69-.92-.93,4.16-1.16-.38-.68,1.08.91.22-.46,2.77c.29.3,3.53-1.16,3.24-2.31l2.29,1.39c-.16-2.23,3.62-3.96,5.54-3.47-.37.71-1.33.47-1.73.81-1.02.86-1.04,2.68-1.24,3.12-.81,1.8-1.84,3.1-3.95,3.24l1.84,1.84c-1.35.22-2.15-.6-2.31-1.84l-1.14.46.22,2.77c-.75-.57-1.68.08-2.2-.1-.15-.05-1.77-2.23-1.81-2.51-.1-.68.93-2.36-.13-2.47-.87,2.4-.45,4.9.07,7.31,1.52-.06,1.49.59,2.13.95.81.45,2.18-.34,1.95,1.9,1.22-.36.69-2.53,2.3-2.31l.06,2.25,2.25.53-.92.91c1.62-.14,2.84,1.45,4.39,1.43,2.03-.03,2.82-2.92,4.62-.96l.42-.88c3.55,1.19,6.2-3.34,9.49-4.21l-.23-.92c-3.38.05-7.03.89-9.47-2.07s-1.65-8.18.9-10.65c1.54-1.49,8.32-1.08,8.32-2.28l-2.31-2.81.47-2.5-.92,1.39-2.08-1.39c-.26-.07-.19.71-.32.78ZM110.03,148.81c.72-3.83.48-7.77-2.3-10.62l-.08.82-.85-.36c1.59,3.05,1.47,6.63,2.45,9.71.22.68.08,1.34.78.46ZM194.48,148.36c-2.05.04-1.41-2.77-3.23-2.78l.46,4.15c1.23.07,2.88.24,2.77-1.37ZM151.05,151.67c-.06-.08-.85.38-1.36-.28-.47-.6.35-1.84-.88-2.11l.92,6.46c1.98.2.68-2.56,2.3-2.31v-.45c-1.24.23-.74-.96-.98-1.31ZM252.63,158.05c.64-2.13.88-4.22.92-6.46-.64.37-1.21,2.36-1.33,3.04-.16.85-.74,3.15.41,3.42ZM70.76,161.81c-.66-.47-1.69.79-1.33,1.3.13.18,2.93,1.09,2.84,2.27l1.31-.41.3,1.41c3.33.63,6.68,1.12,10.08.9,2.65-.17,4.83-.98,7.04-1.73,1.12-.38,2.62-.43,3.8-1.05.04-.84.23-.96-.68-.92-1.9.09-4.04,1.19-6.02,1.4-1.33.14-5.05.08-6.45,0-1.85-.12-3.17-1.41-5.3-.47l.47-1.38c-.5-.72-4.98-.33-5.79-.56-.32-.09-.17-.68-.27-.76ZM66.48,172.55c-.54-.34-.93-.83-1.68-.65.92,2.11-1.48,3.07-3.23,2.31.15,1.49,1.8,2.35,2.28,3.15.53.89,1.23,3.61,1.88,4.03.21.13,2.54.19,2.65.11.21-.16.25-.83.59-1.02.87-.5,2.07-1.3,2.68-1.62.99-.52,2.15-1.05,3.31-.95l-2.54,3.23-.68-.92-.96,2.75c-1.08-.85-.79.37-1.2.46-.89.2-1.99-.1-2.92.01l.03,1.36,1.64.95.88-.45.23,1.37c.7.28.25-1.79,1.14-.46.47.7.7,1.46.7,2.3,1.62-.82,1.5-1.59.29-2.79-.46-.46.34-.89.39-.89.11,0,1.89.97,1.97,1.05.24.26-.02.95.39,1.28,2.15,1.69,3.65-3.4,6.18-2.34l-.46,1.85-1.38-.23c-.21,1.23,1.32.7,1.84.45.61-.29,3.12-3.54,3.86-4.25.21-.2.96-.03,1.12-.21.42-.5,1.01-4.13,2.87-4.77-1.32-1.66-.89,1.23-2.3.69v-1.39c-.92.21-2.92.46-3.73.26-.93-.23-.86-1.16-1.19-1.2-.75-.09-1.53.46-2.17.36-.52-.08-1.02-.89-1.64-1-1.17-.21-2.71-.16-3.93-.24l-.27-1.41-3.23.92c-.49-1.2,2.1-.9.47-2.09-.75-.54-2.9.72-3.44.73-.29,0-.25-.64-.42-.76ZM147.41,177.88c-1.06-2.03-1.14-2.97-3.69-2.75l.93,1.61-1.39.24.46,2.77-.73-.92-2.93.73c-.41,1.68,1.27,3.08,1.32,3.26.25,1.02-.29,2.96,1.04,4.25l3.16-.4-.46-2.3h1.38s.23,1.37.23,1.37l2.54-.92c.53-1.1-.94-.88-.93-1.14.07-1.27,2.32-1.37,2.3-1.86-2.46-2.11-3.31-4.28-5.99-.69-.27-2.06,1.26-2.46,2.76-3.24ZM154.33,181.59c.07-2.07-2.73-4.01-4.61-4.15l1.88,1.68-.53,2.19c1.51.54.75.8.5,2.12l1.79-1.6-.4-1.63,1.38,1.38ZM162.64,191.74l-.2-1.4c-.86-1.17-4.1-.27-2.72,1.41h2.93ZM199.37,193.34c-.71-.6-1.85-.92-2.57-2.05l-.45,2.09-3.25.22v1.38s3.69-.46,3.69-.46l-1.38,1.84h1.55c.45-1.33,2.07-.19,3.52-1.39.22-.81-.58-1.18-1.11-1.63ZM159.84,192.26l-.88-.05c-.24,1.54-1.96,1.71-2.75,3.08-.39.69-.04,1.43-.09,1.47-.2.16-.97.04-1.27.32-.58.53-.92,1.59-1.4,1.81-.26.12-2.37,0-3.16.41-.26.14-.19,1.07-1.26,1.25-1.94.33-7.19-1.84-6.7,2.28l-1.37-.47-1.4,4.62-.68-.92-.24,1.85h-1.16s.24.92.24.92l-1.41-.27-.88,1.93-2.79-.28-.05,1.79c-1.87-.31-4.03,1.69-5.2,1.46-.35-.07-.06-.9-.97-.98-1.45-.12-1.03.81-1.49.94-1.04.29-3.29.49-4.28.02v1.84s-2.77,0-2.77,0l1.38-2.3-1.81.04-.5,3.19c1.63-.11,3.06.85,4.46,1.55.25.13.33.86.94,1.12,3.1,1.3,7.61.88,10.76.1l-.92-1.38,1.73.22-.27.47.84.23v-1.39c2.31,1.33,4.01-.5,5.77-1.77l1.76,1.26,2.6-1.36-.44-.89c1.92.03,4.16-1.04,5.88-1.27,2.77-.37,8.74-.5,11.22.03,2.13.45,4.84.43,7.42,1.04.76.18,1.47.55,2.25.66l-.92.91,3.69.94-.21.93c2.21,2.15,5.94,1.43,7.38,3.69l1.14-.25c-.68-1.8-1.92-1.51-2.86-2.12-.33-.22-.42-.62-.76-.83-2.08-1.26-4.72-2.13-6.54-3.74,2.61-.62,5.47,2.21,7.64,3.67l.9-.91c.62.44.98,1.79,1.59,2.07.21.09,4.5.42,4.64.24.94-1.15-2.75-2.4-1.87-4.13h-1.14c-.16-3.03-3.6-5.66-5.75-7.64l.92-1.14c-1.89.18-2.11-1.79-3.45-2.8-.54-.4-1.53-.39-1.62-.47-.16-.16.55-1.05.06-1.61-.63-.72-3.97-2.2-4.93-2.97-1.21-.98-3.59-3.8-4.19-4.61-1.66-2.29-2.92-.54-4.5-.9l-.33-.9ZM224.02,208.37c1.51-.4,1.79.03,3.23.47l-1.38,1.37,3.47-1.33.25-2.54c-1.65-.49-1.87-.94-2.34-2.58l3.69,1.38-1.38-2.54c2.45-1.11,1.84-4.19.93-6.23,1.39.57,1.91-.1,2.3-1.38-.48.4-2.63.6-2.75.68-.46.32-.57,1.16-.95,1.42-.54.36-1.71-.66-2.3.44l2.3.7c.17,2.2-1.76,2.88-1.38,5.07l-1.12-.49-.49.94-1.15-.92.91,3.23-2.04-.95-1.18,1.65c1.19.54,1.02.63,1.38,1.61-1.01.27-1.69,1.03-2.77.92l1.84-1.39c.1-.84-1.72-.75-1.85-.92-.06-.09.51-1.29.51-2.07.01-1.53-.68-2.27.42-3.69l-.94-.47c2.07-.02,1.47-2.33,3.24-2.55l-1.15-1.37-.7,1.37-1.83-.92.04,1.8,1.34.27c-.54,1.34-2.56.71-2.69.79-1.01.62-2.11,3.81-1,4.98-2.29-.03-.25-2.73-2.08-3.69-.61,1.35-1.67,2.7-1.42,4.41.1.72,1.47,1.02,1.2,2.05l-1.33.04-.06,1.81,1.38-.92-.23,1.84,1.61-1.38v2.31s2.31-.92,2.31-.92c.39,1.1-1.49,1.45-1.72,1.97-.2.43.5,1.48-.58,1.96,1.57.48.7.83.44,2.06l-.91-.22.92,1.84c-1.88.84-2.13,6.07,0,4.85l-.24-.92,1.16.24-1.4,2.75c1.99.54-.26,3.05,1.64,4.4l-.23-1.84,1.62,1.84.69-1.84,2.3.46-.41,1.21c-.17,1.3.7.29.77-.15.18-1.11.28-2.31-.12-3.38-1.21-1.13-1.67,1.36-2.81-.45.79-1.47,1.04-3.05-.6-3.9l.4-3.49,1.38.46.47-6.92,1.38,2.31c-.05-1.99.72-3.59,0-5.54ZM201.87,195.44l-4.61,3c3.01,3.8,3.82-.24,4.61-3ZM227.71,210.67c-1.52-.43-1.67.72-1.8,2.14-.07.74-.14,3.96.66,4.32,1.35.61.64-2.26.68-2.45.07-.37.91-.29.96-.6.11-.79-.82-2.34-.49-3.41ZM212.02,218.06l-3.23-2.76c1.28,2.21-1.32,1.35-2.19,2.43-.53.66-.4,2.82-.64,3.05-.26.25-1.79-.16-2.25.75l.92,1.61c-2.44.3-.94-2.3-3.22-.45.34,1.1,1.31,1.34,2.31,1.13v3.01s-.47-1.39-.47-1.39l-1.39.24c.29.87.22,2.21,1.39,2.08l-.91.46.94,2.07-.92.24v.91s.83.06.83.06l-.39,1.33h1.39c-1.25,2.58.94,4.1-.03,6.64l.97.52c-1.58,1.74.48,2.39-.41,4.17l.88.44c-1.52,2.3-.07,4.37-.48,6.84-.07.39-.73.28-.83.54-.34.9,1.44,3.37-1.02,3.47l.92.46v.68c-.98.17-2.12,3.27-1.84,3.46.54.36,1.96-.4,1.84,2.32l-1.83-.92-3.21,6.28c-.25.73,1.39.72.9,2.03,2.47-.27,3.28-.11,4.54-2.6.59-1.17.73-1.7.06-2.93l1.34-.04c-.77-2.24,2.41-2.88,2.86-3.49.49-.66.14-3.36.52-4.45.32-.89,1.47-1.31,1.55-1.93.18-1.25-.88-4.57,2.03-3.95l-.02-.91-.9-.22c.4-3.39,2.63-6.32,2.54-9.71-.02-.63-.87-2.28-.71-3.17l.95-.51c-1.53-1.27-.07-2.34-.13-3.63-.05-1.02-1.16-2.59-1.24-3.33-.03-.23.78-.14,1.05-.78.42-1-.18-8.15-1.06-7.28l-.92,1.37c-1.22-1.14-.42-3.4-1.85-3.23v-.92s1.38,0,1.38,0ZM186.93,220.58c-.54-.33-.91-.85-1.67-.67.78,1.71,1.04,2.23.46,4.15l1.38-.46c.4.49-.85,3.25.92,2.77v-5.54c-1.12.8-.81-.08-1.09-.25ZM162.64,221.29l-1.39,1.17c1.16.11,1.12.86.23,1.14-1.31.41-.33-2.05-.91-1.84-2.94,1.48-6.97.7-9.7,3.23-.24.08-.07-1.73-1.47-.32-.28.28-.25.78-.61,1.02l.93.45c-1.36.91-1.94,3.67,0,3.93l-.91.68,1.5,3.81c.43.4,4.43,1.05,5.15,1.01,1.23-.06,2.23-1.13,2.82-1.16.29-.02,1.15.95,2.05.25-.81-1.45.7-1.68.91-2.18,1.02-2.43,2.5-5.9.97-8.22l.92-.45-.49-2.52ZM143.86,226.71c-.59-.5-.6-1.63-1.82-2.03-2.02-.66-2.99,1.49-3.73,1.67-2.31.57-5.64.55-7.96.03l.92.91-2.22,1.15.89,2.33-.97,1.6c1.54-1.07.47.63,1.56,1.89.7.8,4.59,1.72.51,1.81l-.19.87,1.34.96.26-.95c1.72,1.3,2.73-.47,4.03-.37,1.17.09,1.27,1.31,1.52,1.32,2.44.07,4.15-3.18,6.62-2.32l.5-2.76.69.93c.94-.89.33-2.16.23-3.23l.91.92c-.03-.56-.1-1.63-.4-2.03-.46-.6-1.56.16-1.43-.73l2.3-.46-1.41-.34.02-1.04c-.78.09-1.43.49-2.16-.13ZM171.41,226.37l-2.11,1.39-1.32-.49c-.35,1.37-1.76.47-3.03.95-.48,1.27,1.16.87,1.37,1.66.15.6-.43,1.26-.44,1.76,0,.25,2.84,1.57,1.84,3.05,2.49-1.23,3.38-2.82,5.02-4.91l-1.74-2.09.41-1.3ZM192.65,229.14l-.93-2.76c-1.05.29.26,1.87-1.38,2.07,1.32.79.68,2.15.96,3.2.84,3.19,2.96,6.59,1.81,9.96,1.66-.76,2.21,0,1.16,1.3l-1.16-.37.46,6,1.15-1.38.7,1.84-2.71.52c-.14.17-.11,1.65-.02,1.75.25.26,1.5-.39,1.34.49l-2.54.43c-.5,3.34-2.56,8.8-5.59,10.6-1.35.8-2.97.72-4.02,1.03-.38.11-.28.82-.62.89-5.85,1.17-16.73-5.15-21.49-8.33-5.76-3.85-11.52-6.86-18.36-8.99-1.3-.4-2.78-.59-4.14-.71l.92-.91c-2.46.67-3.98.57-6.23-.47l.23.92c-.32.27-5.87-.62-6.62-.48-.5.09-.39,1.13-1.04,1.32-.38.11-3.46.02-4.12.2-.28.07-.22.67-.58.77-1.57.45-3.46,1.36-4.72.05l-.08.85c-1.93-.89-1.1.6-2.05.93-.72.24-2.16-.16-2.45.13-.14.13.1.89-.14,1.18-.31.38-3.28,1.65-3.58.36l1.84-.7-.43-1.34,1.35-.96c-2.44.07-5.23,1.38-6.46,3.46,1.24,0,2.26-.05,2.3,1.61-1.46.02-6.57,3.75-1.38,2.32l-1.38,4.15,5.07-1.85-.92-1.37,1.84.46c.52-1.17-.95-.87-.93-1.14.11-1.21,1.46-1.44,2.46-1.16.46.13.1,1.06.92.87,1.15-.27,2.98-2.08,3.32-2.11.23-.02,2.43,1.16,3.4.41l.29.83.52-.94h1.56s-.47.93-.47.93c1.45-.45,3.08.16,4.39.04s2.48-1.15,3.68-1.32c1.83-.26,3.64.17,5.32.82l.23-1.38.24,1.84c.93.1,2.02-.17,2.91.01.39.08,5.03,4.55,6.1,5.07l.45-.93.7,2.77c2.59-2.23,4.53,1.24,6.37,2.29,1.5.86,3.99,2.05,5.61,1.41l.25,1.4c1.25.17,1.15.23,1.85,1.36l.23-1.38c1.37-.27.66,1.16,2.18,1.3.63.06.97-.2,1.51-.38.41,1.84-1.02,2.39-1.84,3.69,1.54-.03,1.67,1.42,3.63.99l.52,2.71c1.29-.03,2.09-.49,1.87-1.83,1.14.55,2.46-.37,3.46-.29,1.72.15,4.97,1.24,7.37.63.29-.07.2-.84.48-.85.46-.01,1.13.54,1.78.52.19,0,.44-1.58,1.66-.95l-1.38,2.3c.97-.41,3.11-.62,3.84-1,.9-.47.56-1.28.9-1.64,1.2-1.27,4.79-1.86,6.19-3.05.96-.82,6.23-7.93,6.49-8.97.45-1.78.15-4.04.79-6.14.83-2.71,2.2-2.99,1.16-6.6-.13-.45-.87-.29-.9-.33-.17-.26.65-.64.7-1.11.15-1.31-.36-2.81-1.66-3.28l.72-1.59c1.45-.27-.07,1.17.22,1.38,2.33,1.64,1.92-4.97.91-6l-1.37.46.92-1.38h-1.39c-.37-1.61.89-.39.92-.46.52-1.16-.81-.9-1.14-1.36-.09-.13-.4-2.76-.25-3.26l-1.84.45c.6-1.11.21-1.96-.7-2.76l-1.14.92ZM122.95,228.68l-4.1-.89c-1.29,1.86.43,4.09-2.82,1.81l-.46.92-.69-1.83c-1.21.8-2.54,1.14-1.62,2.76-4.08-1.27-2.93,1.5-2.3,4.16l2.3-.46-.46,1.38,3.03.5,1.12-.96v1.39c.28.33,5.04-1.76,5.4-2.51.19-.4-.29-1.6-.23-1.88s.7-.18.8-.53c.22-.81-.08-2.66-1.34-2.48v-.91s1.38-.46,1.38-.46ZM222.18,236.98c1.46-1.55.11-3.85,1.84-5.31l-1.37-.69-1.62,3.23c.17-1.2-.03-1.64-1.15-2.3-.25,1.57,1.36,2.91-.47,3.52-.49,1.69.88,1.57.93,1.84.4,1.99-1.13,1.8-1.9,2.71-.39.46.4,1.36-.87,1.17l.21.91,3.93-1.38-1.39,4.83,1.38.24-.46,2.31c1.74.39.8-2.37.96-2.92.1-.35.73-.34.85-.66.67-1.84,2.71-5.43-.43-5.19l.92-2.77-1.38.46ZM237.41,251.3c-1.69-2.53-.84-5.45-1.24-7.75-.16-.91-2.01-6.32-3.14-6.09l-4.55,16.69c-.33,1.99-2.57,4.23-2.9,5.91-.27,1.36.34,2.15,0,3.61-.93,3.93-5.45,5.2-5.71,8.87l-.69-1.38c-1.75,1.7-3.3,5.06-4.88,6.66s-5.46,2.76-7.5,4.04c-5.7,3.58-7.87,5.44-14.5,8.11-5.55,2.23-7.4,3.09-12.55,5.91s-10.66,4.48-15.66,7.19c-.62,3.43.95,2.03,1.77,2.47.74.4.8,1.61,1.2,1.64,1.96.15,5.1-1.75,6.52-1.74.62,0,1,.72,1.54.61.63-.12,1.51-1.21,2.58-1.49.86-.23,2.37.4,2.45.3.23-.28-.05-2.17,1.72-2.23.88-.03,1.1,1.43,2.45-.08.2,1.43,1.1,3.04,2.77,2.77-.77-2.46,1.44-2.19,1.39-4.16l.92.24-.24,2.99,2.08-.46c.27-1.29-.47-.9-1.38-.92-1.04-1.18,4.14-5.7,4.16-.92.84.13,1.85-.83,2.54-.75.53.06.78,1.01,1.61.74v-2.31c1.13.72,2.67-1.37,3.47-2.3l.46,1.84c.99-.55.24-1.88.64-2.47.13-.18,4.09-2.92,3.3-.53-.11.33-1.13.45-1.39.93-.07,2.01,2.98-1.43,3.13-1.95.31-1.03,0-2.29.1-3.37l1.37,2.77,1.85-3.47.46-.22.02.9.9.02,1.85-2.53-3.21-.24.92-3.68,1.37,2.3c-.68-2.85,1.81-1.77,3.42-2.82,1.3-.85,3.86-3.24,5.06-4.43.31-.31,2.03-.19,1.68-1.98l-1.61,1.38-.7-1.14c2.05-.36,1.56-2.52,1.92-2.94.33-.39,1.66-.06,2.02-.18.09-.03,1.36-.53,1.55-.62,1.92-.9,2.45-1.51,3.58-3.36,1.07-1.75,1.56-4.6,2.14-5.48.23-.35,1.2-.41,1.5-1.03.79-1.6.21-5.23,2.39-6.21l.15-6.26,1.21.68-.28,1.16.69-.35.46.81.65-.73-.88-3.88-.91.92ZM154.88,240.07c-.13-.09-.08-.54-.09-.77-.73-.18-.21.72-1.03,1.07-.53.22-1.94-.09-2.66.31l.46,1.38c-1,0-2.13.04-3.06.38-.68.25-.65,1.01-.9,1.01-1.25-.02-1.02-.93-2.49.68,1.27,2.9,2.04,2.34,4.62,3.23,1.17.4,1.7,2.03,2.07.23l.24,1.39,1.15-.92c1.8,2.62,5.36,3.72,8.44,2.46.67-.27,1.22-1.93,2.41-2l-.49,2.02c1.55.47.45,1.12.74,1.69.27.53,3.06,2.42,3.77,2.61.75.2,1.33-1.03,1.76.63l2.99-1.64c-1.18-1.12-1.6.16-2.77.23.69-2.19-.07-2.59,2.31-3.47-1.59-1.87-.14-2.04-.09-3.15.02-.38-2.68-3.51-2.92-4.45l-.69.92c.75-2.11-3.26-2.33-4.1-1.78-.32.21-.26,2.19-1.45,2.88-.21.12-.76-.18-.85-.08-.44.49-.54,2.86-1.46,3.14.09-2.21.19-5.52-2.53-6.04l-.47.96-3.01-1.39,1.38-.46c.28-1.52-1.07-.92-1.3-1.07ZM144.65,242.07c-1.57.51-3.08-1.02-4.35-.93-.98.07-2.59,1.28-3.95,1.15l6.22,1.62-.69-1.38c.49-.39,3.24,1.43,2.77-.46ZM130.24,265.72c-.24-.39-3.08-1.36-3.55-.99l-.52,1.12.94.45v1.15c-.54-.47-2.61,1.3-2.7,1.48-.33.62.44,1.32.31,1.69-.06.17-2.21,1.43-1.76,2.83l2.31-.46-.92-1.15,2.31-.69v2.3s-2.77,0-2.77,0c-.69.68,1.97,2.65,3.59,1.74.51-.29,1.14-2.86,2.4-2.67-.15-2.55-1.54.55-2.29.93-1.06-2.6,1.32-3.47.46-6l.92,2.3.83-.22-.38-.69c1.91.4,1.52-1.29,2.26-2.55l-.87-.68-.46,1.38c-.03-.4.1-.94-.1-1.27ZM140.03,273c.42-3.69-2.34-4.85-5.57-4.82l-.66-2.1c-.86,1.39-3.04,3.12-2.43,4.73.47,1.27,2.24,2.46,1.74,4.49l1.37-1.38c.24,2.44,2.4,4.29,1.85,6.92l1.38-.46c.39,1.44-1.89.56-.46,2.09l1.79-.32.07-1.77,1.79.06.96,2.49,1.31-.15.33.83,1.15-.92c.17,1.31.33,2.04,1.8,1.88.52.55-1.43,6.22,4.38,2.21,1.15-.79,1.24-2.11,3.05-2.25-.64,2.08-2.7,2.35-3.21,4.86l3.67,2.06v-3.23c.9-.07.26,1.62,1.19,1.82,1.7.37,2.62-1.85,3.11-2.17.39-.26,1.16-.04,1.23-.12.23-.23-1.38-4.78,1.85-4.61l-.46,2.77,1.14-.93,1.15.48-.46.9h2.31c.18,1.76-1.58.93-2.43,1.45-1.18.72-1.17,2.07-3.56,1.79l.92,1.38-2.31-.45.47.91-2.31.47c-.1,2.04,1.85-.84,2.54,1.84.76-1.72,3.89-.5,5.3-2.54l-1.38-1.15c.88.11,3.17-1.17,3.48-1.83s-1.35-2.53.21-3.53c2.03.68,1.63-.55,2.5-.65,1.7-.18,2.37,1.26,2.88,1.34.59.1,1.12-.94,1.72-.85.85.12,1.53,2.7,3.5,1.32l.02-2.29,3.68,1.39.52-3.18,1.33-.05-.24,1.38c1.5-1.2.92-3.32,3.47-2.76-.32.2-3.02,3.63-1.16,2.76.36-.17.67-.9,1.15-1.1.74-.31,2.52.14,3.51-.2s2.56-2.49,4.35-1.93l-.92-2.3v1.85c-2.55-1.02-4.28,1.05-6.46,1.84l3.69-3.46-1.15-1.15c-4.4,4.42-11.08,1.91-16.15,4.64l-.47-.95-1.38.93-.7-.92,2.3-1.39-1.76-.38c-.54,2.26-.97.13-1.34-.08-.59-.33-1.73-.37-2.44-.48-.34-1.56,1.67-.17,2.31-1.61-2.81-1.1-3.01,2.11-4.49,2.89-1.68.89-6.32,2.17-8.16,1.92-.26-.04-4.1-1.1-4.3-1.21-.78-.4-.87-1.19-1.18-1.39-1.93-1.19-1.43.14-3.71-2.27-1.85-1.95-4.21-4.82-7.23-3.41ZM196.74,279.85c.27-.2.65-1.33,1.88-1.56l-.44-2.06c-.84-.15-.25.84-.54,1.27-.89,1.32-3.13-.83-3.61-.35-.81,1.65,2.11,3.15,2.71,2.7ZM162.4,307.84c1.36-1.34,1.77-2.19.73-4.17-2.4-1.26-3.1.92-4.2,1.42s-2.45-1.03-3.38,1.68c-.21.6-.91,4.8-.76,5.01,1.94-1.31,6.15-2.51,7.6-3.94ZM190.76,305.81l-1.81-.5-.04,1.33c-.16.15-3.62.4-4.34.54-.75.14-.8-.31-.7.9l6,.47v-1.85s.92.47.92.47l-.03-1.35ZM154.8,306.24c-3.93-.09-3.09,2.83-2.3,5.53l2.3-5.53ZM183.87,310.85l-.69-2.77c-1.18-.24-.93.22-1.41.94l-1.12-.49.04,1.8,3.18.51ZM177.41,370.87l-.23-1.39c-.96,1.04-1.05,5.26.22,6l.23-2.31,1.15,2.3c.45-2.07.8-3.95,0-6l-1.38,1.39ZM153.39,382.07c-.23.6-3.29,4.21-3.56,5.29-.4,1.54.36,9.6-1.49,10.28l-.93-.93-.23,1.39-.67-2.56-1.86-.21v1.38s-1.39-.93-1.39-.93l-.47,5.08-.92-.47c.5,1.45-1.65,3.05-1.67,4.4-.02,1.25,3.6,2.23.28,2.99l-.45-.92c-1.27,1.8-1.05,3.94-1.85,6l1.3-.41c.36,1.41,2.34,1.33,1.92,3.18l-1.84-1.38c-.03,2.14-2.35,1.89-1.91,4.11l-1.36.29-.38,3.24c1.86.3.28,3.51.92,4.32.15.19.73-.05.87.03,0-1.18-.14-2.11-.46-3.23,1.77-.36.48,1.76,1.02,2.67.14.23,1.28.49,1.51,1.01l1.15-3.68.93,2.55c-1.22,2.93-2.18,1.72-4.15.68,0,.46,0,.93,0,1.39l-1.4-.27-.45,1.65-.51-.81-1.79-.11v1.39s.92-.47.92-.47c.04.69-.71,4.71-1.37,4.15l-.2-.9c-2.29.31-1.86,2.21-2.11,4.13.85.05.5-1.28,1.03-1.73.26-.22,2.45-.71,2.65-.57l.46,11.54-.46-2.77c-1.29.43-.89,2.07-.92,3.23l-.46-2.77c-2.47,2.89-1.26,6.63-.91,10.15l.75-.93c3.01-.6.66,2.49,1.08,4.16l-1.38-.92-2.31,8.77,3.58-1.05c.08-1.88,1.88-2.69,1.5-4.96l1.62.03c-.07-3.79,2.7-4.67,4.61-7.41,1.5-.63-.18,3.73.22,4.15-.66-.33-1.4-1.48-1.84-.22-.31.89.93.61.94.94.04,1.11-.61,3.29-1.45,4.11,0,1.78,1.4,1.45,1.44,1.91l-.52,2.47c-1.16.05-1.67-.28-2.03.96l-1.38-1.84-1.16,3.23-1.38-.46c1.01,2.49-.17,1.52-.68,2.32-.21.33-2.42,4.66-2.49,4.93-.26.94.68,1.92.76,2.78.14,1.47-.53,3.84.09,5.67l-.92-3.23c-1.24.24-.65,1.72-.95,2.42-.17.4-.7.35-.85.71-.91,2.22-.88,5.21-3.74,6.33-.49,1.78,1,.71,1.41,1.45.15.28.56,2.32.44,2.47l-1.37-.92c-.5,1.16-.07,2.39-.16,3.38-.04.41-.73.84-.69,1.39.05.77,1.61,1.89,1.32,3.08,3.6-1.41.57.89.91,2.77-.89-.68-1.3-.92-2.43-.47l-.8,2.32-.92-.23.93,3.92.92-.47-.21,2.79-1.63-.02.93,5.09.91-.47v1.85s3.69-3,3.69-3c.32-1.39-3.4.42-1.84-1.4.63-.74,2.75-.58,3.65-1.17-.37-2.39-1.27-3.76-.41-6.42.75-.12.34.65.63,1.24.09.19.69.14.69.35-.02.63-.72,1.67-.39,2.57h1.84s0-3.69,0-3.69c3.46.18-.6,5.7,0,6.46,3.1-2.15,1.89,1.68,1.38,3.7l-1.38-.47-.53,4.55c-1.57.07-1.59.59-2.01,1.91l-.22-2.31c-3.76-1.19-2.68,1.52-3.33,2.68-.21.38-2.1.5-1.75,2.15.04.19.48.85.9.42.87-.9,1.56-1.57,2.78-2.02v1.6s.92.23.92.23c1.23-2.66,1.79-2.23,4.04-1.55.31.09.82-.28.97-.18.41.27.45,1.9,2.38,1.28.77-1.75-2.18.18-1.38-1.15.63-1.05,2.55-.8,3.12-1.27.87-.71-.14-3.04,1.49-2.66-.63,1.44-.18,3.54-2.3,3.7l.45,1.17,4.16.21-.92,1.38c1.36.38,1.94-2.17,2.56-2.3.7-.14,1.49,1.83,2.97,0v1.15s-2.04.72-2.04.72c-1.15-2.56-.94-.32-1.44.38-1.94,2.69-3.09,1.16-3.43,1.44-.14.11.3.77.23,1.13-.18.88-1.11,1.77-.68,3.02l1.38-.46c.76,1.68-1.49,2.53.45,3.93l-1.97,1.27.14,2.19c.91-.17.69-1.86,1.62-2.3,1.65-.79-.47,2.05-.24,2.3,1.56.95,2.88-.25,3.55-.28,12.86-.5,24-1.2,35.68-7.79.98-.55,3.84-1.98,4.39-2.53,1.74-1.72.39-5,5.29-3.93l-.46-.93,2.45-1.63.32-.91-2.77-1.16c2.51-1.37,4.96-3.69,5.08-6.7l1.37.92.94-1.83,1.37.91.47-1.85,1.38.46-.46-1.38,1.38.46c-.21-1.34-1.08-2.67.24-3.69l.45.93c2.53-.9.71-2.31,1.18-4.3.07-.3.66-.28.86-.69.28-.56-.05-1.49.74-1.94l.7,2.3,1.83-.92c.27.84.11,2.18,1.39,1.84-.5-3.3-1.29-5.46,1.85-7.62-2.07-.73-1.08-2.99-1.4-4.59-.13-.68-1.12-4.25-1.38-5.06-.52-1.61-2.07-2.67-2.3-4.42l-1.37,2.3.86-6.17-2.04-1.21-.67.91-3.84-14.4-2.62-3.42c.82-2.22-.21-3.91.91-6.18l-2.76,1.39-.46-2.77,1.84.22-1.39-5.5c2.39-.97-.15-2.26-.48-3.24-.74-2.18.03-3.28-.07-4.98-.17-2.69-2.34-6.58-2.2-9.58-.95.24-.74.68-.73,1.38.07,3.36.98,6.45,1.65,9.7-1.41.26-.71-.42-.96-1.09-1.02-2.66-2.28-8.81-2.27-11.61,0-1.48,1.07-2.57,1.17-3.67.07-.78-.43-5.84-.81-6.17l-1.28-.32.94-3.46.9.46.47-2.3-.92.23c.77-2.74-.61-4.89-.46-7.62l-1.84.46-.22-1.89c-2.63.11-.79-3.58-1.17-5.5,1.41.55,2.01.31,1.84-1.38l-1.17.06-1.24-3.68-1.28-.08,1.28-2.13c-.68-2.45-.23-5.84-.88-8.19-.27-.99-1.22-.66-1.27-.07-.07.76.88,1.99-.74,3l-2.54-2.76c-.81,1.3.93,4.54.89,4.79-.11.65-4.13,2.63-2.74,5.36l-.91-.92v2.77s1.37-.92,1.37-.92c-.04,1.69,2.25,2.9-.23,3.7l-1.14-.93c1.35,2.57,1.25,5.26,1.37,8.08.02.53.36,1.71-.45,1.61-.25-1.65-.57-3.32-.8-4.97-.32-2.33-1.08-6.43-1.09-8.64s.92-4.42.5-6.69l-.91,2.3c.06-3.21-.86-5.93-1.21-9.08-.07-.6.27-1.3.18-2.1-.18-1.62-1.4-1.63-1.29-3.13-1.18.11-.75,2.11-.93,2.29-1.45.14-2.67-.68-2.3,1.4-1.27-.69.34-3.04,0-4.15l-2.08,3.69-.89-.88-.94.42-.25-1.39-1.84,1.85.91-4.15M142.33,388.41c-.91-1.07-1.8,3.05-1.96,3.35-.41.78-3.22,4.4-2.65,4.96,3.09.39,2.36-1.71,3.2-3.51s2.66-1.23,1.41-4.8ZM226.76,510.79l-5.73-3.73c-1.44.77,1.05,2.3.49,3.24-1.45,1.24-3.41.85-4.18,2.75l-.46-1.85-3.92,1.85c.29-1.33-.49-1.33-1.24-2.06l.32-1.17-2.27.03c-.31,1.38-.44,4.57.91,5.29,2.63.9,4.2-1.03,6.44-.94-1.89,1.49-3.35,3.03-6,2.54-.03.74.17,1.64-.22,2.32-.54.93-2.42.34-2.09,1.83,2.11.77,3.03-.41,4.97-1.13.17-.06-.2-1.13,1.49-.25-.06-1.01-.08-2.44,1.38-2.31l-.79,1.49.34,1.28,3.37-1.39,1.24,1.23-.47,1.55c-1.87-.88-1.12.12-1.7.47-1.02.62-3.73.18-4.93-.05l-.51.96c-.52.08.23-1.89-.92-1.39s-.15,1.79-.23,1.84c-.23.14-1.2-.21-1.76.1-.41.23-1.09,2.87-3.1,2.11-.31-.12-.27-1.29-1.61-.81l.28,1.38c-1.33,1.55-3.76,1.42-5.02,1.95-.59.25-.92.86-1.3,1.01-3.13,1.19-5.3,2.27-8.73,1.66l.47-.92-4.16-.47-.22-1.38c-4.19,2.87-8.92,4.68-13.5,6.79-.51.23-.55.84-.94,1.02-1.64.78-3.94,1.09-5.69,1.64l.05,1.16c-1.83-.74-3.23-.19-5.07,0l2.3.91-3.19.42-.49-.87c.33,1.13-2.09,1.23-3.07,1.32-3.55.33-7.68-.38-11.05.02-.46.05-1.24,1.2-3.13.97-.38-.04-.08-.91-.98-.98-1.3-.09-3.5.33-4.62.99-1.12-1.85-5.48-.16-7.8-1.44l-.49.95c-2.73-1.99-1.68.5-3.73.51-1.33-1.32-1.63-.99-3.47-.72-1.02-3.22-2.54.91-3.2.22v-1.39c-2.62.9-4.23-1.06-7.17.2l-11.99-2.96c-.78.3-.23,1.18-.32,1.29-.46.52-4.57,1.09.56,1.93l-.75,1.61.53,1.15.69-1.84c.9.56,2.34-.11,2.94.05.69.2.68,1.96,2.8,1.77,1.11-.1,1.91-1.08,2.91-1.27,1.12-.21,2.94.53,4.27-.57l-1.15,1.38h-3s0,1.39,0,1.39c.22.22,4.01-.08,4.74.11,6.41,1.67,6.21,1.58,13.07,1.32.23,0,.14.78.42.79,12.83.47,24.2-.6,36.98.55,1.23.11,2.61-.41,3.87,0l-1.38-.91c2.23.36,8.74.29,10.34-.87.61-.44-.17-1.57.73-1.44l1.39,1.61-.92.91,1.84.7c-.61,1.49-2.76.79-4.15.91l-.22-1.38c-1.87,1.91-1.46,1.33-3.23,1.47-.71.06-1.37.38-2.09.37l.47,1.38c-1.49-.1-2.6.08-2.31,1.85,3.66-.4,7.08-1.66,10.61-2.55.88-.22,1.21.71,1.64-.7l1.59.49v-1.39s5.27.03,5.27.03l.3-1.36c.3-.3,2.51.18,3.38-.12.69-.24.69-2.02,2.59-1.32-.07-1.35-2.23-1.27-.68-2.31,2.22,1.47,2.23.18,3.82-.32,1.7-.53,4.81-1.72,6.32-1.99s-.44,2.28.92,1.39c1.05-.69,1.18-4.31,3.92-1.84v-2.31c-.29-.4-5.22,2.05-5.85,2.22-2.23.58-4.47.67-6.39,2.38l-.86-.87c-3.05.96-6.06,1.91-9.15,2.77-1.72.48-1.66.31-3.7.54-.66.07-1.38.87-1.95.81-2.54-.3,2.4-2.09,2.89-2.22,2.21-.62,3.37-1.12,5.54-1.8,6.81-2.16,17.27-3.77,22.81-7.21,1.45-.9,2.06-3.24,4.06-1.23-.42-.56,1.24-2.56,1.49-2.69.33-.18.97.39,1.71.15,2.43-.78,4.66-3.65,7.42-3.46l-.46-1.38,2.67-.11c1.66-3.39.55-4.21-.19-7.28-.2-.84.31-1.6.05-2.29-.6-1.55-2.92-1.75-1.65-4.14ZM199.09,515.83l-.74-.96.74-2.27-1.42,2.27-3.19.05,1.4,4.61,5.07-4.85-1.85,1.16ZM199.59,522.32c.23-.14,3.73,2.31,4.53-.82.56-2.19-2.77-2.07-4.1-1.52l.92,1.37-1.98.47-4.49,4.14c.89.07,2.29-.89,2.98-1.38.61-.43,1.3-1.08,1.92-1.58.21-.17.15-.67.2-.7ZM118.18,524.46c.37-.99.26-2.14-.06-3.13l-2.55-.43,1.84,1.39c.13,1.27-.96,1.52-2.04,1.41l-.72-.95-.69,1.38-1.15-1.38-.27.93c-2.67-1.19-1.1,2.63-.19,4.14l.92-.32.23-.61.23.93h.92c-.17-1.39.55-.43,1.35-.72,1.93-.69,1.06-1.35,1.46-2.14.22-.44.7-.43.73-.51ZM206.02,522.29c-.86-.86-2.98,2.69-4.24,2.32l-.83,1.36c.29.25,6.45-2.3,5.07-3.69ZM139.1,525.52l-3.95.89c.1,3.12-.89,1.93-1.45,2.44-.37.34-.12,1.9-1.52,1.76.95.65.5,2.1.89,2.53,1.29,1.39,1.72-.23,2.33-.43.41-.14.93.22,1.1.15.22-.09.82-1.04,1.72-1.06l.89-6.27ZM191.72,529.67c2.77-.16,2.11-2.1,2.3-4.15-1.34.91-3.04,2.51-2.3,4.15ZM129.27,529.1c.26-.21.99-1.49.38-1.73-1.67.65-2.74,1.28-3.04,3.19l-1.58.04.24,2.77c3.15-.23,1.57-2.54,2.74-3.86.38-.43,1-.21,1.26-.41ZM121.11,536.14l-.74-3.16c-2.29-.58-3.44.35-4.79,2.01l5.53,1.15ZM214.33,534.76l-4.63,1.14-.45,1.63c.44.44,5.19-1.43,5.07-2.76ZM95.22,537.12l-1.77-.03-.95,3.2c1.94-.33,2.42-2,4.61-.93-.3-.86-.97-1.33-1.81-.96l-.08-1.28ZM220.79,537.06c-.75.48-1.61,0-2.27.25-1.06.4-2.52,2.32-3.08,2.42-.48.08-1.4-.53-1.56-.36-.1.11.04,1.97-1.62,2.21l-1.37-1.18c-3.56,1.64-7.28,3.68-10.84,5.21-1.49.64-2.56-.45-3.04,2.1l-1.59-.03.92-.69c-1.24-1.57-2.68.52-3.4.76-2.12.71-8.21,2.51-10.23,2.69-1.46.13.53-2.1-.9-1.37-.55.28-.94,1.4-1.85,1.4l-1.15-.94c-.54,2.85-2.16,1.13-3.89,1.38-.75.11-2.24.42-3.14.58-1.51.28-3,.84-4.54,1.03-.25,1.12-1.46,2.78-2.26,3.01l.92,1.37c-2.45-.95-2.02.18-2.66.43-.89.35-2.18.09-2.87,1.19l1.38.23-1.36,1.65.89,1.11c-.18-2.11,1.73-1.94,2.22-2.43.4-.39-.46-1.63,1.01-1.27l.92,5.08h-2.3s0-1.85,0-1.85l-1.62,1.38-.9-.92-7.17,1.38.5-1.36c4.01,1.42,8.76-2.28,2.03-1.87-2.31.14-2.64,1.66-3.7,1.86-.12.02-.26-1.23-1.91-1.24-.37,0-2.68.26-3.1.33-.46.08.02,1.36-1.21.91l.46-1.38h-1.39s-.22.92-.22.92c.18-.79-3.67-1.49-4.09-1.33-.76.27-.67,1.47-.99,1.33-.63-1.21-1.53-.48-2.22-.63-1.05-.22-1.59-1.61-2.86.17l-.46-.92c-.83,1.6-1.63,1.81-3.28,2.26l-1.56,2.35c1.45.61,3.5.18,4.76.47.59.14-.2.47,2.41.67s7.3.95,10.01.6c1.18-.15,2.51-.93,3.88-1.11,1.06-.14,2.88.54,4.32-.16l-.39.87.85.51c-1.31.42-3.31-.46-4.33-.33-1.23.15-1.41.47-3.41.62-2.15.16-3.09,1.29-4.93,2.06-.83-2.11-4-1.13-6.01-1.12-.59,0-1.12-.59-1.38-.56-.56.06-1.21,1.04-2.09.73l-.45-1.38c-.87,3.09-.93-.56-1.63.92-.25.52-.28,1.04-.24,1.61l2.3.75.03,3.65-3.37-3.37.13-2.62c-.68-.12-.61.9-.7,1.4-.2,1.01-.47,2.77-.23,3.66l-4.14.02c1.35-1.22-.73-3.25-.46-3.68.11-.18,1.76-.17,1.38-1.39-1.55.03-4.31-.63-5.71-.45-.5.06-.52,1.83-1.9,1.37l.69-.92-1.84-.25.61,1.92,1.24.87c-.75.41-1.13.51-1.31,1.48-.29,1.6,1.33.52.38,2.44-1.77.08-.77-2.6-2.76-3l.93-.45-.92-1.16c.13,1.92-3.1,1.23-3.48,1.84l.24,1.85h-1.85c.63,1.47-.12,1.83-1.15,2.77l-1.15-.92.46,2.76-1.84-.92c-.23,1.18.96,2.64,2.09,2.8.72.1.84-1.46,2.06-.95l-.46-1.38c2.07,1.85,2.92,1.73,4.61-.46v2.77s-1.84,0-1.84,0l.92,1.84h-2.31c.51.85-.04,1.29-.69,1.85l.24-1.38-1.65-.43-.45.91c-.57-.41-2.48-.7-2.51.21-.02.61,1.33.29,1.6.67.68.94.28,2.65.67,3.36.37.68,2.94.91,1.41,1.52-.81.32-4.68-1.19-6-.7-.09-.76-.04-1.44.7-1.84.96-.52.06,2.21,2.07,1.38l-.92-1.84,1.38.46.46-1.85h-2.31s.47-.92.47-.92l-2.95.42-.59-.66.31-1.15c-1.9.24-3.43-1.31-4.89.43-.52.62-.59,1.71-.71,1.81-.46.4-1.88-.44-1.78.52,1.78.11,1.25,1.3,2.06,2.24l1.63-.4-.92-2.3c.82-.21,1.06.58,1.69.76.95.26,1.66-.53,2.26,1.1l1.58-.47-.46,2.3-.46-1.39h-.92s0,1.39,0,1.39l-3.23-.46v2.3s-1.38,0-1.38,0c.56-1.28-1-3.28-2.5-2.74l-.74,1.82-1.15-.86-1.38,1.27-1.15-.86v1.39s-1.85-.47-1.85-.47l.92,1.84h-2.76s.92-1.38.92-1.38c-2.66-.75-7.51-.29-3.46,2.77l-.23-1.39h1.38s0,1.83,0,1.83l-2.57.43-.42-.88c-2.55,2.12.07,2.22.7,3.69.35.25,1.63-2.96,2.76-1.15l-1.39.46c-.36,1.51,1.09,1.02.92,1.38-1.33.45-4,2.59-.97,2.58l.28,1.34,3-2.07-2.3-1.38c2.11-2.46,2.16.51,5.07-.23l-2.3-.46.74-1.32,6.18.86c-.46.99-2.4.71-3.34,1.04-1.07.38-1.74,1.88-3.58,1.27-.4,2.17.93,1.26,2.29,1.64.52.14,2.64.6,2.32,1.36l-1.79.64-.97-1.32c0,2.05-1.14,2.48-2.77,3.24l1.38,2.06-1.39-.23c-.06,1.52-.34,2.47,1.34,1.48.1-.06-.04-.49.05-.55,1.78-1.25.1,2.53-.57,3.08-.09.07-1.65-.14-1.75,1.06.76.03,1.47-.31,2.24-.17,3.92.76,4.54,2.46,9.26,2.24.58-.03,1.12-.73.96.47-1.44,1.06-3.38,1.81-5.07,1.16l.46-1.38c-.81.08-1.79-.16-2.55-.02-1.33.26-.71,1.3-1.6,1.39l.46-1.84-1.56.34c-2.48-1.5-5.86-1.59-8.8-1.7l-.26-1.42-1.36.5.44,2.74c1.78-.9,1.2.23,1.72.43,1.84.7,3.74,1.56,5.65.95v2.31c2.35-.38,4.51.85,6.92,0v1.39s1.85-1.62,1.85-1.62l-.92-.68c1.07-.34,3.29-1.01,4.33-.91.14.01.73,1.23,1.68,1.57,1.62.57,5.14,1.41,6.71.77.57,2.1,1.81-.09,2.64.04.57.09,2,1.26,3.1,1.06.95,2.37-2.54-.06-3.1-.14s-1.02.75-1.73.8c-.99.06-2.53-.7-3.95.05l1.38,1.37c-2.57,1.28-3.84-.98-6-.91.84,2.84,2.52,3.54,5.07,1.84l-.46,1.38c1.75.73,2.97.16,4.42.06.2-.01.14.75.54.84,4.58,1.05,9.32,2.15,13.97.95l-.46,2.3,2.76-1.15c-.36-.73-1.41-.49-1.75-.77-.12-.1.38-.72-.08-1.08-.08-.06-1.34-.15-1.86-.71l.92-1.37-1.84-.46,2.54-.02.23-.91-1.3-.09c.31-2.63-3.23-.22-3.31-2.68.27-.25,2.95.6,3.45.68s1.23-.36,1.79-.18c.9.29.16,2,2.73.97l5.41,1.54-7.38-.69.45,2.31c-.6-.09-1.87-1.21-1.84.23,0,.23,1.91.67,1.39,2.08,1.26-.44.02-3.69,1.61-.92l.24-.93.46.92,1.38-.92-.4,1.16.63.66,2.08-.44-.92,1.38,3.03.95.9-.95.68.02.23.91,3.69-.94.24,1.39c.71.17.26-.65.8-.91,1.84-.89,3.54.24,4.95.37,1.64.15,3.43-.61,5.32.55l-.24.92h-1.39s-.22,1.84-.22,1.84l2.56-.92c.37,1.63.95.43,1.74.6,1.06.23,1.95,1.58,3.55.1-.98-.08-2.4-1.97-2.56-2.01-.57-.14-2.09.73-2.97.4v-2.77c2.29,2.02,6.14-.28,7.84,1.84h-1.85s0,2.77,0,2.77c1.3.44.69-.85,1.16-.93,1.1-.18.46.81.99.95,1.16.29,4.38-.45,5.88-.07l1-1.82c4.69,1.3,8.46,1.24,13.13.49l-.46,1.38h2.3s-1.38-1.38-1.38-1.38c1.99.87,2.74-1.33,3.1-1.41,1.84-.42,5.25,1.34,7.78.99.83-.12.54-.75.96-.92.48-.2,1.84.37,2.7-1.43l.62.08c.4,2.07,3.32.07,4.65-.28,1.41-.37,4.53-.76,5.94-1.33.07-.03.22-.97.99-1.05.67-.07,1.14.82,2.05.74.14-.01,1.54-1.58,2.05-1.81,7.25-3.29,16.65-2.67,23.61-6.75l-.92-1.15c1.79.25,2.31-1.53,3.69,0v-1.4c2.12.95,1.61-.78,2.57-1.81,1.33-1.42,3.93-1.74,3.43-4.19l1.41.25.9-1.4c-4.64-.97-1.22-6.03,1.84-3.46l.47-2.31.91.22-.23,1.16c.86-1.04,3.35-1.52,4.09-2.28.42-.43.2-1.17.38-1.31.67-.55,3.85-.12,2.69-2.87l-1.38,1.38c-1.17-2.55,1.56-3.28,1.76-3.78.25-.61-.95-1.54.32-2.21,1.66-.31.55,2.67,1.15,3.23.91.84,2.26-2.79,2.76-2.77l-.46,2.76,2.76-.46-.92,1.84c1.36.45,1.86.58,2.77-.69l-.95-.47.96-2.53c1.15.11-.41,2.31,1.38,1.84l-.91-3.22,3.02-1.37c-.2-2.24.75-5.88-2.08-6.53.81-1.57-1.98-3.91-1.93-5.46l-1.33-.04.46-1.84c-.7,1.38-4.01.58-4.59-.03-.05-.05.46-.74.22-1.33-1.26-3.12-9.29-7.54-8.78-12.01-1.64-1.4-3.46-2.6-5.76-2.34l1.15-.45.23-.92-2.12-1.36-1.1.88c1.65-.17.3,1.02.75,2.19.2.53,2.44,1.91,2.48,3.35-.76.76-4.29-4.37-5.54-3.69l.46-1.38-2.28,1.38c-.08-1.74-2.37-2.47-3.11-3.33-.15-.18.38-.96-.37-1.28l-.24.9-.9.02-1.64-2.3-1.37.92-.7-1.38-.9.69c2.13,1.49-.65,2.69-1.16,3.95-.3.73.57,1.66-.46,2.28l-.53-1.4-1.97-.7c1.26-2.44-1.05-.98-1.88-2.96l2.3.45-.93-1.14.47-1.16c1.09.38,1.61.58,1.38,1.85l1.38-1.16-1.84-.69c.1-.58,1.67-.72.92-1.84-.4-.6-2.25-.01-2.76.46-.48-1.56,1.96-1.07,2.3-1.41v-2.28s-1.34,1.18-1.34,1.18l-1.42-.25c.75,1.49-.94,2.91-.93,4.61l-.46-1.39-1.85.23,2.31-2.07c-1.88.09-4.73.49-5.08,2.76l1.38.92c-1.69.22-4.09,2.5-4.15,4.16-1.85.45-.34-1.76-.46-1.84-3.31.74-4.36-2.97-.92-3.23l-.46,2.3,1.62.02.29-1.32,2.71-.56-.22-2.77c-1.23-.56-1.74.27-2.33-1.4l-1.15.02.47.92c-2.14-.62-3.43.14-5.48.56l-.11,1.23c-.38.35-2.09-.5-1.81.99l-1.37-.92-.08,1.29c-.84.39-2.8.59-3.51-.01-.81-.69.14-2.13-1.61-1.63-.43.12-3.01,1.29-3.11,1.51l2.3,1.61c-2.59-.73-2.92-.88-4.39,1.39-.89-2.9-3.2.41-5.08-.92l3.83-2.17c1.09-.63,3.53-1.02,4.41-1.5.57-.31,0-1.24.58-1.43.33-.11,3.3-.75,3.75-.81.7-.09,1.3.32,1.97.37v-1.39c1.88.95,3.53-1.64,4.87-1.86,1.17-.19,2.68.76,3.44.28,1.25-2.92.98-1.53,2.35-1.89s2.65-2.79,5-2.13l.28-1.36,2.44-.04.54-1.3h-1.39s.46-1.39.46-1.39ZM230.48,544.91c-.41-.39-2.03.91-1.85,1.61,2.23.82,1.5,4.1,4.15,4.39l.23-1.39.71.23c-.22-1.94-2.19-4.15-4.17-2.99l.92-1.84ZM155.72,547.22c-1.95-.11-4.08,1.06-5.77-.34l-1.61,1.71c1.89.28,4.64.27,6.48-.22.82-.22,1.07-.15.9-1.15ZM146.49,548.61l-3.43-.48c-1.85,2.01-6.21,1.11-8.85,1.09-.9,0-3.66-.05-4.3.05-.83.13-1.07.33-.95,1.19,3.58-.92,7.81,1.97,11.07-.46l.23,1.38,2.09-.93-.47-.91c.61-.42,4.09.83,4.62-.92ZM167.69,548.66c-.51-.16-1.1-.48-1.64-.5s-2.64.02-3.19.07c-.66.06.72.92-2.38.48-.5-.07-1.73,1.07-2.89.37l-.72,1.83-.46-.93-1.39.93-.68-.92c-.01,1.32-2.16.74-1.85,2.76,1.26.57,1.37-.87,1.66-.9,1.45-.18,3.32.9,5.02-.48l-.23,1.39c.9-.51,2.4.06,2.95-.01.33-.05.22-.81,1.17-1.15,1.35-.49,2.81-.41,4.2-.42l.42-2.5ZM148.27,553.16c1.06-3.12-.59-1.89-2.71-1.53-.61.1-1.33-.31-1.37-.25-.09.14.11.71-.03,1.01-.3.62-1.25.06-.9,1.3l5.01-.52ZM140.03,552.76c-.75-.77-9.92-.46-11.53-.47.49,2.7,5.05,1.19,7.1,1.1,1.14-.05,2.77.33,3.87.18.74-.1,1.32-.04.56-.82ZM161.15,554.24c-.53-.21-1.17.24-1.67.45l-.07,1.76c-.22.25-5.62-.12-6.71.09-.4.08-.02.96-.44.83-.8-.33-.11-1.21-.48-1.41-.98-.52-6.88-1.23-5.29.49l1.39-.24.77,1.25-.32.83,10.15.93c.68-1.06-1.79-.92-.92-1.84.16-.17,3.86-1.07,4.61-.93.43-.48-.8-2.12-1.02-2.21ZM125.26,561.53l-3.64.04c-.75,1.36.05,2.27,1.1,3.18l2.54-3.22ZM110.95,569.85c-1.51-1.29-2.85-.42-3.86-.59-.58-.1-.83-1.06-1.67-.8v2.77s1.33-.38,1.33-.38l.06.82,1.83-.91-.92-.46.7-.92,2.3,1.39.22-.91ZM265.51,575.79c.73-1.21-2.07-4.26-2.26-4.11l-.47,1.84h1.38s-.46,2.77-.46,2.77l1.8-.5ZM105.88,575.38c-1.75.42-2.66.9-4.15-.47.6,2.49,3.74,1.98,2.31,5.08,1.97-1.03.4-3.29,1.84-4.61ZM98.4,576.87c-1.92.42-2.48-.02-4.05-1.03.13,1.23.19,1.67-.95,2.13l.49,1.56c.26.21.95-.91,1.37-1.09,1.44-.6,5.54.16,6.23,1.55l2.08-1.16-2.13-2.03-2.71.9-.33-.83ZM80.03,588.3c.53-.58-1.32-2.59-2.08-2.76-1.02.87-1.04,2.04-.68,3.22l.93-1.38c1.04-.66.97,1.87,1.84.92ZM270.17,590.62l-2.75.93.69,3.68c1.26.19.24-.84.47-1.8.33-1.32,1.51-1.65,1.59-2.8ZM80.5,591.54h-3.23s1.39.46,1.39.46l-.46,2.77c.52-.6,3.01-2.41,2.3-3.23ZM265.27,595.07c-.45-.72.03-2.37-1.55-2.15l-1.39,3.22c1.82-.7,3.38.28,5.07.93.17-1.28-1.44-.89-2.13-2ZM262.72,597.15c-1.68-1.06-1.12.27-1.62.38-.85.2-2.94-.27-3.32.07-.12.11-.16,1.05-.5,1.55-1.94,2.85-.58,1.25-.93,3.61-.03.23-2.43,2.38-1.61,4.04-.57.72-2.17-.2-1.63,1.81,2.6-1.03,2.44-3.01,5.29-3.7.68-.17.81-.94,1.62.24.07.18-3.87,1.15-2.76,2.07.73.61,4.57-1.74,2.74-3.44l.95-.48c-1.91-.71-1.98-1.42-2.3-3.46,2.13.81,1.3,2.44,4.18,2.99,1.72.33.65-2.75,1.82-3.45h-1.85s-.07-2.24-.07-2.24ZM252.15,599.4c-1.15-.98-2.24,3.07-4.59,1.37v1.39s-1.33-.45-1.33-.45c-.19.83-1.73,2.16-.28,2.75,2.09.84.23-2.38,2.07-1.84l-.92,4.15c3.71.79,3.26-2.85,4.83-4.63.85-.96.75-.18.71.48l.91-.69c-1.1-.31-1.29-2.42-1.4-2.52ZM73.75,607.5c-.3-.29.05-.89-.63-.72l-.27.96c-2.48-1.5-2.58,2.08-.35,2.18.7.03,1.36-1.23,2.46-.38.32-1.43-.52-1.37-1.2-2.05ZM260.94,610.92l-.22-.91c-.74.89-2.42.84-3.16,1.34s-.4,1.88-1.69,2.11c.49,1.2,3.22.27,3.74-.56.42-.67-.43-1.93,1.33-1.98ZM250.33,614.63c-1.79-.94-2.72.31-4.48.58l-1.97,3.1c2.76.3,2.23-2.64,5.07-1.85l-.46-1.38,1.84-.46ZM215.26,623.39l-.47-1.85-5.07,2.31c2.95,1.48,2.94.3,5.54-.46ZM207.87,624.32c-.6-.48-2.6.77-3.24,1.24-.21.15-.29.83-.64,1.09-.65.5-1.71.1-1.65.89h4.15s-.47-.91-.47-.91l5.08.92-.06-2.7c-1.86-1.26-2,.66-3.63.85l.46-1.38ZM134.59,628.37c1.04-.59,5.73.95,3.79-1.27l-11.27.45,1.38,1.38c-2.32-.31-4.94-1.5-6.92.46h2.77s-.92.46-.92.46l-.46,2.31,1.15-.93,2.07.94-.92-1.84c3.04,1.4,1.95-2.07,5.04-.18.81.5,2.7,1.79,3.98,2.02.94.17,1.93.05,2.78-.42l.42.89,1.39-1.38,1.84,1.85.46-.93c-.03.86,2.79.48,2.92.37.27-.23-.22-1.02.54-.83-.45,2.55,2.24.89,2.31-.92l-4.62-.46-.22.91c-1.53-1.79-3.32-1.27-4.95-1.52-.54-.08-8.37-.92-7.29-1.7l4.35-.48.36.84ZM115.11,661.25h-6.46c.7,1.57,2.26,1,3.46.94.93-.04.73,0,.69.9-2.83-1.01-4.1,2.07-6.46,1.38l-.23,1.4h-1.62s.33-1.17.33-1.17l-.61-.6-2.95-.1,3.01,3.69c1.04.22.88-2.06,2.53-1.38l-.47.92,7.5,1.23c3.22-.34,7.67.52,10.7.17.54-.06,1.1-.33,1.18-.93-1.18-.09-3.52.39-4.15-.92,2.9.23,6.14-1.14,7.15,2.3l.23-1.85c2.76.08,4.63,1.13,7.38.01-.78,1.11.28.74.53,1.77,2.17-1.66,1.46.43,3.58.3,7.93-.49,16.74.16,25.21-.49,1.6-.12,5.93-.54,5.29-2.51l.92.24-.47,1.14c6.92,1.07,14.11-.99,21.01-1.84,1.32-.16,2.71.1,4.09-.07,5.11-.63,10.1-2.16,15.29-2.09l.69,1.69-.45-.92c-5.94,1.29-12,2.42-18,3.49-.55.1-.91-.07-1.39-.27v1.39s-1.38-.92-1.38-.92c.83,1.2-.29,2.13-.29,2.54-.01.53,1.5,1.19.06,2.08-.8-1.83-2.99-1.57-2.13-3.85l-.67-.73-3.43.42.69,1.84c.24-1.35,2.24-2.02,2.54-.68.24,1.09-1.9.89-2.08,2.08-1.03.25-1.58-2.1-1.91-2.35-.76-.57-1.88-.08-2.7.04l-.24-1.39-2.55,2.3-.22-1.37-6.46.46.59,1.05,1.71-.13c.13,1.14-.06,3.23,1.36,3.26l-.19.9-1.62.46c2.03,2.93,1.95-1.94,4.83-1.42-.28.96,2.22,2.26,1.63,2.79s-1.52-1.34-2.46-1.3c-1.16.05-2.12,2.75-4.03,1.99l-.49,1.56-2.25.07c.54,1.01,1.83.68,1.41,2.5l-.94.72c1.7.45,1.47-1.11,2.54-1.84l.23,1.38c1.27-.81,3.82-1.24,5.34-1.32.19-.01,3.13,3.53,2.05-.06,1.13-.45,2.4,1.25,2.54,1.29.16.03,3.01.1,3.18.09.23-.02.43-1.51,1.66-.91-.4.56-1.49,1.77-2.07,1.85-1.22.18-5.84-.91-6.72-.66s-3.8,3.36-3.21,3.88c1.21.62,1.44-.93,1.66-.95.56-.04,1.23.44,1.79.4,1.57-.12,7.58-.28,8.11-1.14.32-.52.37-1.38.43-2,1.2,1.42,1.49,1.95,3.49.96,1.67,2.93,2.54-2.76,5.27-1.43l-1.61-.45-.24-.92c.74.02,1.77-.24,2.1-.94.28-.6-.39-.45.33-1.38.11-.14.66,0,.34-.91l-1.38-.92,1.38.23v-2.54s1.38,1.38,1.38,1.38l-.46-1.84c1.5-.37.54.93,1.2,1.41.83.61,1.68.32,2.26-.49l.23,1.37c.88-.66,1.89.34,2.08.33,1.11-.1,1.58-3.08,3.46,1.52l-1.87.67.26,1.64c.25-1.48.72-2.35,1.38-.46,1.38-2.24,3.57-.71,5.77-1.39l-2.3-1.38,2.97-.49.5.97c1.88-1.36,5.66-.16,3.38-3.21l-3.62.41c.11-.35,5.31-3.21,2.99-3.69-.86-.18-3.41,1.62-4.83,1.39v-1.39s4.61-.93,4.61-.93c-1.01-2.39-.44-2.96.92-5.07-1.29.17-2.47.76-3.84.45-.2-.05-.73-1.61-2.16-.92.47-2.1,3.71.39,4.15,0l.47-1.16-.94-.45.71-1.15,1.84.92c.52-2.35,3.77-1.25,4.41-1.63.56-.33,1.06-2.13,2.05-2.41l1.43,1.28c.96.02,3.53-1.29,1.8-1.86-.9-.3-.63.7-.76.81l-1.77-.36c-1.17-.97,4.03-2.23,4.38-2.3l.5.94-.73,1.36c1.72-.84,6.44-.44,6-2.77,2.34,1.28,1.58-.26,2.51-.93.29-.21,2.8-1.59,3.01-1.64.71-.19.99,1.01,1.87.73l-.91-1.15c1.41-.92,3.36-.11,3.69-2.54h.92s-.23.92-.23.92l3.92-.92-1.84,1.84,4.58-.96.04-1.35c1.47,1.18,2.34-.75,1.14-.92-1.08-.15-3.19,2.95-4.37.47,1.14-.37,2.46-.36,3.56-.83.31-.13,4.49-3.11,3.82-1.26-.04.12-2.88,2.1-.73,1.59.57-.13,1.64-.63,2.24-.91,1.53-.71,2.96-2.28,4-2.94.33-.21,3.36-.95,3.64-1.27l.09-3.61c2.53.29,3.61-1.82,5.52-2.8-2.02-1.22-.64-1.71-1.4-3.68l-3.21.45,1.38-1.37c-1.82-1.31-3.07.47-3.92.47-.36,0,.03-1.47-1.15-.94l-.49,2.05.96.49-.93.46,1.38.23c-.6,4.41-1.89,1.39-2.11,1.38-.36,0-.89.48-1.31.4-.27-.05-1.67-2.53-2.57-1.78-1.03.87,1.18.79.92,1.38h-2.3s.24,2.34.24,2.34c-1.24,1.55-3.12.47-4.19.62-.77.11-2.03,2.23-4.36.74l.46,1.38-2.51.49-.71-.94c.26,1.18-1.1.73-1.43,1.2-.35.49-.27,1.89-.86,2.3-.3.21-1.28-.4-2-.21-.67.18-1.2,1.34-2.44,1.78-2.13.77-6.15.16-8.25.49-1.21.19-1.75,1.13-2.46,1.29-.76.18-1.58-.39-1.98-.16-.23.13-.22.89-.8,1.15-.93.42-4.97.06-5.18.21l-.45,1.17.92.46c-2.15-.42-2.87,1.56-4.44,1.71-.71.07-1.49-.43-2.24-.33l.23,1.39-.93-1.38c-1.76.4-3.67,1.91-5.07.46v1.39c-1.14-1.02-6.89,1.42-7.39.92l-.92-1.85.23,1.38c-4.55-.09-9.45,2.29-13.86,2.33-1.33.01-3.91-1.77-5.9-1.27-.82.2-1.4.97-1.92,1.04-.94.13-2.53-.95-3.47.44,2.62.4,4.85-.49,7.38-.69-.65.47-3.32,2.84-3.67,2.98-.55.2-1.72-.33-2.56-.25-4.77.45-10.05,1.95-14.02,1.22-.46-.08-.97.2-1.44.21v-2.31c-1.97.39-5.32-.65-6.23,1.39l-.53-.94h-2.94s0,1.84,0,1.84l5.06.7-2.03,1.65c-.65-1.61-1.94-1.33-3.46-1.47l-.04-1.33-2.08,1.39c-.47-1.23-1.05-1.25-2.31-1.36-1.67-.14-7.08.17-7.83,1.37-1.52-1.72-2.62-.04-4.17.18-1,.14-2.7-.13-3.5.08-1.52.4-2.56,1.67-3.63,1.87-1.21.22-3.68-.81-5.31-.79-1.38.02-4.6.32-5.99.51-.59.08-1.02.48-1.4.89l-1.15-2.29,2.27-.04.06-1.55-3.72-.72,1.85,1.84ZM270.42,645.83c.3-.39,1.51-1.73,1.13-2.13-2.03.18-1.87,2.26-3.85,1.43l-1.23,2.72c1.4-.31,1.7.8,2.31,1.85-1.31-1.07-3.92,2.23-2.08,2.3,1.4.06,1.08-1.75,1.16-1.84.13-.15,2.19,1.54,2.36-2.07.08-1.7-.77-.99.2-2.26ZM258.99,654.22l1.02-4.05-1.38,1.16.92.69c-1.32.93-2.88-.43-3.36-.37-.16.02-2.81.98-3.06,1.1-.58.28-2.17,1.33-2.31,1.9l.43,2.91c2.18-1.72,5.07-2.51,7.74-3.34ZM202.8,653.86l3.02-1.36.23-.71-.71-1.15-3,1.61,1.84.46-1.38,1.15ZM256.79,659.4c1.23-.88,1.8-2.82,3.7-2.31l-.24-3.23c-.74,1.88-1.26.87-2.29,1.34-.9.41-2.83,1.18-3.47,1.66-1.42,1.07-1.34,3.23-4.16,2.54.65,1.08.15,1.41-.46,2.3,1.74.57,3.36.08,4.87-.91.42-.27,1.76-1.19,2.05-1.4-.41.36-.7,2.58-1.84,3,1.01.29,4.1-.63,2.85-1.85l.6-.61,1.62.2,2.77-1.66c-1.88-.94-2.17.59-3.09.84-.6.16-2.2-.54-2.91.08ZM243.87,655.71c-2.66-.16-4.88.98-6.65,2.81l-2.57.42.68,1.33,5.32-1.79c-.2,2.73-4.55.84-4.61,3.69,1.15-.24,3.13-.28,4.02-1.06s.76-2.84,2.43-3.33l-.92-1.15c.95-.17,2.66.65,2.31-.93ZM239.26,663.56v-1.39s-4.16.93-4.16.93l1.38,1.38c-2.11.3-1.31,3.61-4.12,2.33-.25,1.33-.34,2.1-1.87,1.84l.93,1.62-.92.45c1.11,3.1,5.31-3.15,7.32-2.13l.76-1.79c3.41,1.65,2.34.29,4.13-1.4.89-.83,2.76-.73,2.55-3.22l-5.99,1.39ZM247.1,666.79h-2.77s.46,1.84.46,1.84l-1.84.92,1.81.24,2.26-1.23.08-1.77ZM164.59,671.27c-.15-.1-.12-.56-.11-.79-1.57.26-.69,2.95.28,3.16l1.57-.39v1.85c1.14-.84,1.4,1.59,2.55,2.3l.69-1.84.74.93,2.48-.47c.3-1.8-1.01-.32-1.6-.47l-.71-2.08-1.38.24c-.54-1.07,1.88-1.42,1.38-1.84-1.17-.96-5.09-.03-5.9-.6ZM162.8,677.12c.53-.35,1.29-.25,1.67-.86-.69-2.54-1.83-3.34-4.12-4.4.04,1.85,1.57,1.37.46,3.69,1.93-.79,2.18.15.93,1.62l.9.68c-.03-.24-.02-.62.16-.74ZM227.71,674.64l-3.22.45c.33.87-.25,2.82-1.06,3.11-.54.19-2.11-.52-2.17.58,4.33,2.3,3.59-.49,5.05-1.15.42-.19,1.28.39,1.41.23v-1.85s-1.85-.23-1.85-.23l1.85-1.15ZM139.98,680.13c.73-2.02-1.89-3.59-2.72-1.56-.28.7,1.5.88.92,2.07l1.79-.51Z"/>
  </g>
</svg>